<svg aria-hidden="true" style="position: absolute; width: 0; height: 0; overflow: hidden;" version="1.1" xmlns="http://www.w3.org/2000/svg" xmlns:xlink="http://www.w3.org/1999/xlink">
<defs>
<symbol id="icon-sm-arrow-right-white" viewBox="0 0 43 32">
<title>sm-arrow-right-white</title>
<path fill="#fff" style="fill: var(--color1, #fff)" d="M42.457 14.884l-14.408-14.408c-0.283-0.285-0.676-0.461-1.109-0.461-0.864 0-1.565 0.7-1.565 1.565 0 0.433 0.176 0.826 0.461 1.109l11.745 11.745h-35.999c-0.873 0-1.581 0.708-1.581 1.581s0.708 1.581 1.581 1.581h35.997l-11.745 11.745c-0.292 0.279-0.474 0.671-0.474 1.106s0.182 0.827 0.473 1.106l0.001 0.001c0.293 0.28 0.691 0.452 1.129 0.452s0.836-0.172 1.13-0.452l-0.001 0.001 14.408-14.408c0.279-0.272 0.452-0.652 0.452-1.072 0-0.020-0-0.039-0.001-0.059l0 0.003c-0.022-0.443-0.206-0.839-0.495-1.133l0 0z"></path>
</symbol>
<symbol id="icon-sm-accessible-gray" viewBox="0 0 32 32">
<title>sm-accessible-gray</title>
<path fill="#8a8b8a" style="fill: var(--color1, #8a8b8a)" d="M9.92 9.813c2.71 0 4.907-2.197 4.907-4.907s-2.197-4.907-4.907-4.907c-2.71 0-4.907 2.197-4.907 4.907v0c0 0.004-0 0.008-0 0.013 0 2.703 2.191 4.894 4.894 4.894 0.005 0 0.009 0 0.014-0h-0.001zM9.92 2.133c1.531 0 2.773 1.241 2.773 2.773s-1.241 2.773-2.773 2.773c-1.531 0-2.773-1.241-2.773-2.773v0c-0-0.006-0-0.013-0-0.019 0-1.521 1.233-2.754 2.754-2.754 0.007 0 0.014 0 0.020 0h-0.001zM27.947 30.027l-3.893-5.92c-0.168-0.276-0.46-0.462-0.798-0.48l-0.002-0-9.547-0.747-3.253-7.52c-0.097-0.204-0.154-0.443-0.154-0.695 0-0.293 0.077-0.568 0.211-0.806l-0.004 0.008c0.243-0.451 0.661-0.782 1.16-0.905l0.012-0.003c0.098-0.020 0.21-0.031 0.326-0.031 0.783 0 1.443 0.527 1.644 1.247l0.003 0.012 1.493 3.84c0.177 0.41 0.579 0.692 1.046 0.692 0.122 0 0.239-0.019 0.349-0.055l-0.008 0.002 4.747-1.76c0.416-0.157 0.707-0.551 0.707-1.014 0-0.597-0.484-1.080-1.080-1.080-0.134 0-0.263 0.024-0.381 0.069l0.007-0.002-3.787 1.387-1.066-2.827c-0.497-1.549-1.924-2.65-3.609-2.65-0.29 0-0.572 0.033-0.844 0.094l0.025-0.005c-1.787 0.352-3.116 1.906-3.116 3.771 0 0.27 0.028 0.533 0.081 0.787l-0.004-0.025c-2.555 1.61-4.228 4.417-4.228 7.614 0 4.954 4.016 8.97 8.97 8.97 4.036 0 7.449-2.666 8.576-6.333l0.017-0.064 1.013 0.053 3.573 5.493c0.189 0.291 0.513 0.48 0.881 0.48 0.009 0 0.018-0 0.028-0l-0.001 0c0.007 0 0.015 0 0.023 0 0.209 0 0.404-0.060 0.569-0.163l-0.005 0.003c0.292-0.188 0.483-0.511 0.483-0.879 0-0.208-0.061-0.401-0.165-0.563l0.002 0.004zM12.96 29.867c-3.773-0.011-6.828-3.072-6.828-6.846 0-2.294 1.128-4.324 2.86-5.567l0.021-0.014 2.987 6.88c0.159 0.36 0.5 0.612 0.904 0.64l0.003 0 6.507 0.48c-1.024 2.612-3.523 4.427-6.446 4.427-0.003 0-0.006 0-0.009 0h0.001z"></path>
</symbol>
<symbol id="icon-sm-arrow-left-blue" viewBox="0 0 32 32">
<title>sm-arrow-left-blue</title>
<path fill="#0097d0" style="fill: var(--color2, #0097d0)" d="M0.37 15.090l10.734-10.736c0.212-0.212 0.504-0.344 0.828-0.344 0.645 0 1.169 0.523 1.169 1.169 0 0.322-0.13 0.613-0.341 0.825l-8.755 8.749h26.818c0.65 0 1.178 0.527 1.178 1.178s-0.527 1.178-1.178 1.178v0h-26.818l8.755 8.75c0.218 0.208 0.353 0.501 0.353 0.825s-0.136 0.617-0.353 0.824l-0 0c-0.218 0.209-0.515 0.337-0.842 0.337s-0.623-0.128-0.842-0.337l0 0-10.741-10.736c-0.208-0.203-0.337-0.487-0.337-0.801 0-0.014 0-0.029 0.001-0.043l-0 0.002c0.017-0.329 0.155-0.622 0.37-0.84l-0 0z"></path>
</symbol>
<symbol id="icon-sm-arrow-right-blue" viewBox="0 0 32 32">
<title>sm-arrow-right-blue</title>
<path fill="#0097d0" style="fill: var(--color2, #0097d0)" d="M31.63 15.090l-10.734-10.734c-0.207-0.19-0.484-0.307-0.788-0.307-0.644 0-1.166 0.522-1.166 1.166 0 0.304 0.117 0.582 0.308 0.789l-0.001-0.001 8.749 8.749h-26.819c-0.65 0-1.178 0.527-1.178 1.178s0.527 1.178 1.178 1.178v0h26.818l-8.749 8.752c-0.218 0.208-0.353 0.5-0.353 0.824s0.135 0.616 0.353 0.824l0 0c0.218 0.209 0.515 0.337 0.842 0.337s0.623-0.128 0.842-0.337l-0 0 10.734-10.734c0.208-0.203 0.337-0.487 0.337-0.801 0-0.014-0-0.029-0.001-0.043l0 0.002c-0.017-0.329-0.155-0.624-0.37-0.842l0 0z"></path>
</symbol>
<symbol id="icon-sm-avatar-gray" viewBox="0 0 32 32">
<title>sm-avatar-gray</title>
<path fill="#8a8b8a" style="fill: var(--color1, #8a8b8a)" d="M16 32c8.837 0 16-7.163 16-16s-7.163-16-16-16c-8.837 0-16 7.163-16 16v0c0.010 8.833 7.167 15.99 15.999 16h0.001zM16 29.539c-0.003 0-0.006 0-0.009 0-3.742 0-7.128-1.523-9.573-3.983l-0.001-0.001c2.449-2.46 5.838-3.982 9.582-3.982s7.133 1.522 9.582 3.981l0 0c-2.445 2.461-5.832 3.984-9.574 3.984-0.003 0-0.006 0-0.009 0h0zM11.077 14.189c0-2.719 2.204-4.923 4.923-4.923s4.923 2.204 4.923 4.923c0 2.719-2.204 4.923-4.923 4.923v0c-2.718-0.003-4.92-2.205-4.923-4.923v-0zM16 2.461c0.002 0 0.005 0 0.008 0 7.472 0 13.53 6.057 13.53 13.53 0 2.863-0.889 5.519-2.407 7.705l0.029-0.045c-1.754-1.708-3.903-3.019-6.298-3.78l-0.113-0.031c1.617-1.364 2.638-3.391 2.638-5.657 0-4.079-3.307-7.386-7.386-7.386s-7.386 3.307-7.386 7.386c0 2.266 1.020 4.293 2.627 5.648l0.011 0.009c-2.509 0.793-4.659 2.105-6.416 3.819l0.003-0.003c-1.49-2.143-2.381-4.8-2.381-7.666 0-7.472 6.057-13.53 13.53-13.53 0.004 0 0.008 0 0.012 0h-0.001z"></path>
</symbol>
<symbol id="icon-sm-bus-gray" viewBox="0 0 32 32">
<title>sm-bus-gray</title>
<path fill="#8a8b8a" style="fill: var(--color1, #8a8b8a)" d="M24.097 0h-16.065c-3.346 0-5.355 1.846-5.355 4.923v27.079h2.677v-3.693h21.42v3.693h2.677v-27.079c0-3.077-2.008-4.923-5.355-4.923zM26.774 25.847h-21.42v-20.925c0.158-1.366 1.288-2.422 2.673-2.461l0.004-0h16.065c1.389 0.040 2.52 1.096 2.676 2.448l0.001 0.013zM10.709 23.386v-2.461h-2.677v2.461zM24.096 20.925h-2.676v2.461h2.677zM0 18.462h32.129v-2.461h-32.129zM17.403 17.846v-9.231h-2.677v9.231zM2.677 9.852h26.774v-2.461h-26.774z"></path>
</symbol>
<symbol id="icon-sm-calendar-gray" viewBox="0 0 32 32">
<title>sm-calendar-gray</title>
<path fill="#8a8b8a" style="fill: var(--color1, #8a8b8a)" d="M27.625 4.215h-4.214v-3.122c0-0.603-0.489-1.091-1.091-1.091s-1.091 0.489-1.091 1.091v3.122h-10.159v-3.122c0-0.603-0.489-1.091-1.091-1.091s-1.091 0.489-1.091 1.091v0 3.122h-4.214c-2.262 0.007-4.095 1.839-4.102 4.101v19.341c0.007 2.262 1.839 4.095 4.101 4.102h22.953c2.262-0.007 4.095-1.839 4.102-4.101v-19.341c-0.007-2.262-1.839-4.095-4.101-4.102h-0.001zM4.673 6.398h4.214v1.505c0 0.603 0.489 1.091 1.091 1.091s1.091-0.489 1.091-1.091v0-1.505h10.121v1.505c0 0.603 0.489 1.091 1.091 1.091s1.091-0.489 1.091-1.091v0-1.505h4.214c1.058 0.005 1.914 0.861 1.919 1.918v3.651h-26.752v-3.65c0.005-1.058 0.861-1.914 1.918-1.919h0zM27.625 29.576h-22.952c-1.058-0.005-1.914-0.861-1.919-1.918v-13.471h26.79v13.471c-0.005 1.058-0.861 1.914-1.918 1.919h-0z"></path>
<path fill="#8a8b8a" style="fill: var(--color1, #8a8b8a)" d="M8.962 15.767c-2.099 0-3.801 1.702-3.801 3.801s1.702 3.801 3.801 3.801v0c0.013 0 0.027 0 0.042 0 2.075 0 3.758-1.682 3.758-3.758 0-0.002 0-0.003 0-0.005v0c0-0.005 0-0.011 0-0.017 0-2.103-1.699-3.809-3.799-3.822h-0.001zM8.962 21.223c-0.896-0.011-1.618-0.74-1.618-1.638 0-0.006 0-0.013 0-0.019v0.001c-0-0.013-0.001-0.028-0.001-0.043 0-0.894 0.725-1.618 1.618-1.618s1.618 0.725 1.618 1.618c0 0.015-0 0.030-0.001 0.045l0-0.002c0 0.005 0 0.012 0 0.018 0 0.897-0.722 1.626-1.616 1.638h-0.001z"></path>
<path fill="#8a8b8a" style="fill: var(--color1, #8a8b8a)" d="M10.577 25.023h-3.27c-0.603 0-1.091 0.489-1.091 1.091s0.489 1.091 1.091 1.091h3.27c0.603 0 1.091-0.489 1.091-1.091s-0.489-1.091-1.091-1.091v0z"></path>
<path fill="#8a8b8a" style="fill: var(--color1, #8a8b8a)" d="M18.331 25.023h-3.273c-0.603 0-1.091 0.489-1.091 1.091s0.489 1.091 1.091 1.091h3.273c0.603 0 1.091-0.489 1.091-1.091s-0.489-1.091-1.091-1.091v0z"></path>
<path fill="#8a8b8a" style="fill: var(--color1, #8a8b8a)" d="M18.331 18.513h-3.273c-0.603 0-1.091 0.489-1.091 1.091s0.489 1.091 1.091 1.091h3.273c0.603 0 1.091-0.489 1.091-1.091s-0.489-1.091-1.091-1.091v0z"></path>
<path fill="#8a8b8a" style="fill: var(--color1, #8a8b8a)" d="M26.082 25.023h-3.273c-0.603 0-1.091 0.489-1.091 1.091s0.489 1.091 1.091 1.091h3.273c0.603 0 1.091-0.489 1.091-1.091s-0.489-1.091-1.091-1.091v0z"></path>
<path fill="#8a8b8a" style="fill: var(--color1, #8a8b8a)" d="M26.082 18.513h-3.273c-0.603 0-1.091 0.489-1.091 1.091s0.489 1.091 1.091 1.091h3.273c0.603 0 1.091-0.489 1.091-1.091s-0.489-1.091-1.091-1.091v0z"></path>
</symbol>
<symbol id="icon-sm-chevron-down-blue" viewBox="0 0 32 32">
<title>sm-chevron-down-blue</title>
<path fill="#0097d0" style="fill: var(--color2, #0097d0)" d="M30.539 7.111c-0.401 0.002-0.764 0.166-1.026 0.43l-0 0-13.511 13.063-13.511-13.063c-0.263-0.263-0.627-0.426-1.028-0.426-0.803 0-1.454 0.651-1.454 1.454 0 0.419 0.177 0.796 0.46 1.062l0.001 0.001 14.526 14.044c0.261 0.253 0.618 0.409 1.012 0.409s0.75-0.156 1.012-0.41l-0 0 14.526-14.044c0.287-0.266 0.466-0.646 0.466-1.067 0-0.803-0.651-1.454-1.454-1.454-0.003 0-0.005 0-0.008 0h0z"></path>
</symbol>
<symbol id="icon-sm-chevron-down-gray" viewBox="0 0 32 32">
<title>sm-chevron-down-gray</title>
<path fill="#8a8b8a" style="fill: var(--color1, #8a8b8a)" d="M31.015 7.111c-0.408 0.002-0.776 0.169-1.042 0.437l-0 0-13.73 13.268-13.726-13.268c-0.269-0.276-0.644-0.447-1.059-0.447-0.816 0-1.477 0.661-1.477 1.477 0 0.432 0.186 0.822 0.482 1.092l0.001 0.001 14.756 14.26c0.265 0.257 0.628 0.415 1.027 0.415s0.761-0.158 1.027-0.415l-0 0 14.756-14.26c0.291-0.271 0.472-0.655 0.472-1.083 0-0.816-0.661-1.477-1.477-1.477-0.002 0-0.005 0-0.007 0h0z"></path>
</symbol>
<symbol id="icon-sm-chevron-up-blue" viewBox="0 0 32 32">
<title>sm-chevron-up-blue</title>
<path fill="#0097d0" style="fill: var(--color2, #0097d0)" d="M30.539 24.082c-0.401-0.002-0.764-0.166-1.026-0.43l-0-0-13.511-13.063-13.511 13.063c-0.263 0.263-0.627 0.426-1.028 0.426-0.803 0-1.454-0.651-1.454-1.454 0-0.419 0.177-0.796 0.46-1.062l0.001-0.001 14.526-14.044c0.261-0.253 0.618-0.409 1.012-0.409s0.75 0.156 1.012 0.41l-0-0 14.526 14.044c0.287 0.266 0.466 0.646 0.466 1.067 0 0.803-0.651 1.454-1.454 1.454-0.003 0-0.005 0-0.008-0h0z"></path>
</symbol>
<symbol id="icon-sm-chevron-up-gray" viewBox="0 0 32 32">
<title>sm-chevron-up-gray</title>
<path fill="#8a8b8a" style="fill: var(--color1, #8a8b8a)" d="M31.015 24.347c-0.408-0.002-0.776-0.169-1.042-0.437l-0-0-13.73-13.268-13.726 13.268c-0.271 0.295-0.658 0.479-1.089 0.479-0.816 0-1.477-0.661-1.477-1.477 0-0.447 0.199-0.848 0.512-1.119l0.002-0.002 14.756-14.26c0.265-0.257 0.628-0.415 1.027-0.415s0.761 0.158 1.027 0.415l-0-0 14.756 14.26c0.291 0.271 0.472 0.655 0.472 1.083 0 0.816-0.661 1.477-1.477 1.477-0.002 0-0.005 0-0.007 0h0z"></path>
</symbol>
<symbol id="icon-sm-circle-plus-blue" viewBox="0 0 32 32">
<title>sm-circle-plus-blue</title>
<path fill="#0097d0" style="fill: var(--color2, #0097d0)" d="M8.020 14.854h-0.022c-0.616 0.023-1.107 0.527-1.107 1.147s0.491 1.124 1.105 1.147l0.002 0h16c0.616-0.023 1.107-0.527 1.107-1.147s-0.491-1.124-1.105-1.147l-0.002-0h-15.978z"></path>
<path fill="#0097d0" style="fill: var(--color2, #0097d0)" d="M17.148 8.022v-0.022c-0.023-0.616-0.527-1.107-1.147-1.107s-1.124 0.491-1.147 1.105l-0 0.002v16c0.023 0.616 0.527 1.107 1.147 1.107s1.124-0.491 1.147-1.105l0-0.002v-0.017z"></path>
<path fill="#0097d0" style="fill: var(--color2, #0097d0)" d="M15.999 0c-8.837 0-16 7.163-16 16s7.163 16 16 16c8.837 0 16-7.163 16-16v0c-0.010-8.833-7.167-15.99-15.999-16h-0.001zM15.999 2.287c0 0 0.001 0 0.001 0 7.575 0 13.715 6.14 13.715 13.715s-6.14 13.715-13.715 13.715c-7.575 0-13.715-6.14-13.715-13.715 0-0 0-0.001 0-0.002v0c0-0.005 0-0.010 0-0.016 0-7.565 6.133-13.697 13.697-13.697 0.006 0 0.011 0 0.017 0h-0.001z"></path>
</symbol>
<symbol id="icon-sm-clock-gray" viewBox="0 0 32 32">
<title>sm-clock-gray</title>
<path fill="#8a8b8a" style="fill: var(--color1, #8a8b8a)" d="M16 0c-0 0-0.001 0-0.001 0-8.837 0-16 7.163-16 16s7.163 16 16 16c8.837 0 16-7.163 16-16v0c-0.010-8.832-7.167-15.989-15.998-16h-0.001zM16 2.283c7.575 0 13.715 6.14 13.715 13.715s-6.14 13.715-13.715 13.715c-7.575 0-13.715-6.14-13.715-13.715v0c0-0.004 0-0.009 0-0.014 0-7.567 6.134-13.701 13.701-13.701 0.005 0 0.010 0 0.015 0h-0.001z"></path>
<path fill="#8a8b8a" style="fill: var(--color1, #8a8b8a)" d="M15.983 4.557c-0.624 0.009-1.126 0.517-1.126 1.142 0 0 0 0 0 0v0 10.303c0 0 0 0 0 0.001 0 0.38 0.186 0.717 0.472 0.925l0.003 0.002 8.001 5.709c0.185 0.134 0.416 0.214 0.666 0.214 0.631 0 1.142-0.511 1.142-1.142 0-0.381-0.186-0.718-0.473-0.925l-0.003-0.002-7.521-5.372v-9.709c0-0.631-0.511-1.142-1.142-1.142v0h-0.019z"></path>
</symbol>
<symbol id="icon-sm-globe-gray" viewBox="0 0 32 32">
<title>sm-globe-gray</title>
<path fill="#8a8b8a" style="fill: var(--color1, #8a8b8a)" d="M15.598 18.439c-0.005 0-0.010 0-0.016 0-0.167 0-0.332-0.010-0.493-0.031l0.019 0.002c-0.965-0.182-1.794-0.669-2.404-1.355l-0.004-0.004c-0.571-0.533-0.897-0.761-1.28-0.75-0.321 0.024-0.618 0.086-0.9 0.182l0.025-0.008c-0.402 0.151-0.866 0.238-1.35 0.238-0.276 0-0.546-0.028-0.806-0.082l0.026 0.004c-2.279-0.597-2.515-2.961-2.671-4.527-0.022-0.238-0.046-0.467-0.075-0.678-0.021-0.149-0.043-0.32-1.185-0.243-0.089 0.009-0.168 0.023-0.246 0.043l0.012-0.003c-0.182 0.058-0.392 0.091-0.609 0.091-0.399 0-0.772-0.113-1.089-0.308l0.009 0.005c-0.468-0.463-0.758-1.105-0.758-1.814 0-0.186 0.020-0.367 0.058-0.541l-0.003 0.017c0.057-0.503 0.48-0.891 0.994-0.891 0.552 0 1 0.448 1 1 0 0.039-0.002 0.077-0.006 0.114l0-0.005c-0.010 0.081-0.015 0.176-0.015 0.271 0 0.036 0.001 0.072 0.002 0.108l-0-0.005h0.035c0.137-0.031 0.304-0.057 0.474-0.072l0.015-0.001c0.742-0.048 3.002-0.194 3.297 1.971 0.032 0.232 0.058 0.48 0.083 0.749 0.149 1.488 0.32 2.559 1.187 2.783 0.075 0.008 0.161 0.013 0.249 0.013 0.305 0 0.595-0.058 0.862-0.164l-0.016 0.006c0.413-0.137 0.891-0.226 1.386-0.246l0.010-0h0.019c1.034 0.055 1.948 0.525 2.586 1.245l0.003 0.004c0.328 0.395 0.758 0.694 1.249 0.86l0.020 0.006c-0.049-0.112-0.087-0.243-0.109-0.379l-0.001-0.010c-0.011-0.074-0.018-0.159-0.018-0.246 0-0.532 0.242-1.008 0.621-1.323l0.003-0.002c-0.062-0.021-0.126-0.043-0.192-0.070-0.763-0.275-1.303-0.985-1.323-1.823l-0-0.002c0.063-1.060 0.725-1.951 1.649-2.345l0.018-0.007c0.347-0.163 0.754-0.257 1.183-0.257 1.088 0 2.034 0.61 2.514 1.507l0.007 0.015 0.206 0.251c0.232 0.274 0.489 0.516 0.77 0.726l0.012 0.009q-0.011-0.051-0.021-0.096c-0.067-0.232-0.105-0.498-0.105-0.773 0-0.185 0.017-0.366 0.050-0.541l-0.003 0.018c0.237-0.795 0.719-1.455 1.357-1.912l0.011-0.007c0.261-0.214 0.529-0.418 0.8-0.621 0.681-0.438 1.253-0.983 1.707-1.618l0.013-0.019c0.204-0.323 0.327-0.714 0.334-1.134l0-0.002c-0.022-0.189-0.074-0.362-0.15-0.52l0.004 0.010c-0.092-0.211-0.173-0.461-0.23-0.721l-0.005-0.028c-0.012-0.058-0.019-0.126-0.019-0.194 0-0.553 0.449-1.002 1.002-1.002 0.485 0 0.889 0.344 0.982 0.801l0.001 0.006c0.038 0.159 0.085 0.296 0.144 0.426l-0.006-0.015c0.16 0.352 0.263 0.761 0.283 1.192l0 0.007c0 0.808-0.227 1.563-0.622 2.205l0.010-0.018c-0.597 0.897-1.343 1.643-2.211 2.221l-0.029 0.018c-0.246 0.184-0.493 0.366-0.728 0.561-0.299 0.202-0.534 0.476-0.683 0.799l-0.005 0.012c0.002 0.156 0.025 0.305 0.065 0.447l-0.003-0.012c0.066 0.22 0.104 0.474 0.104 0.736s-0.038 0.515-0.109 0.755l0.005-0.019c-0.169 0.617-0.666 1.086-1.286 1.214l-0.011 0.002c-1.297 0.237-2.593-1.184-2.959-1.625l-0.221-0.269c-0.752-0.921-0.832-0.928-1.332-0.704-0.21 0.094-0.377 0.254-0.477 0.454l-0.003 0.006c0.019 0 0.050 0.024 0.094 0.043 0.071 0.023 0.154 0.042 0.241 0.054l0.007 0.001c0.732 0.053 1.348 0.502 1.638 1.132l0.005 0.012c0.072 0.172 0.114 0.372 0.114 0.581 0 0.65-0.405 1.206-0.976 1.429l-0.010 0.004-0.080 0.046c0.102 0.070 0.218 0.134 0.34 0.187l0.013 0.005c0.717 0.082 1.268 0.685 1.268 1.417v0c-0.007 0.321-0.163 0.603-0.402 0.782l-0.003 0.002c-0.163 0.124-0.37 0.198-0.594 0.198-0.097 0-0.191-0.014-0.28-0.040l0.007 0.002c-0.161-0.030-0.345-0.047-0.534-0.047-0.207 0-0.41 0.021-0.605 0.060l0.020-0.003c-0.283 0.039-0.615 0.063-0.951 0.067l-0.005 0z"></path>
<path fill="#8a8b8a" style="fill: var(--color1, #8a8b8a)" d="M17.674 31.691c-0 0-0 0-0 0-0.552 0-1-0.448-1-1 0-0.080 0.009-0.158 0.027-0.232l-0.001 0.007 0.23-0.96c0.259-1.072 0.526-2.18 0.678-3.262 0.197-1.412 0.174-1.843-0.491-2.503-0.693-0.565-1.135-1.415-1.147-2.369l-0-0.002c0.066-0.704 0.443-1.307 0.99-1.679l0.008-0.005c0.104-0.078 0.224-0.158 0.347-0.231l0.019-0.010c0.046-0.029 0.107-0.066 0.16-0.098-0.111-0.262-0.23-0.485-0.366-0.696l0.011 0.018c-0.082-0.138-0.16-0.266-0.219-0.379-0.062-0.113-0.103-0.246-0.113-0.387l-0-0.003c-0.016-0.075-0.026-0.162-0.026-0.251 0-0.241 0.069-0.465 0.189-0.655l-0.003 0.005c0.418-0.485 1.032-0.789 1.718-0.789 0.102 0 0.202 0.007 0.3 0.020l-0.012-0.001c0.768 0.020 1.482 0.234 2.101 0.594l-0.021-0.011c0.254 0.144 0.48 0.298 0.691 0.445 0.561 0.389 0.726 0.48 1.139 0.378 0.324-0.108 0.588-0.217 0.844-0.339l-0.045 0.019c0.621-0.385 1.375-0.613 2.181-0.613 0.34 0 0.67 0.040 0.986 0.117l-0.029-0.006c1.768 0.733 1.58 3.34 1.224 4.416-0.386 1.381-1.178 2.542-2.237 3.379l-0.014 0.010c-0.277 0.198-0.545 0.366-0.8 0.526-0.586 0.28-1.057 0.721-1.368 1.264l-0.008 0.015c-1.157 2.331-2.747 4.778-5.775 5.252-0.050 0.010-0.109 0.016-0.168 0.018l-0.001 0zM19.19 18.243c0.196 0.333 0.311 0.733 0.311 1.16 0 0.176-0.020 0.347-0.057 0.511l0.003-0.015c-0.181 0.551-0.566 0.993-1.064 1.244l-0.012 0.006c-0.069 0.042-0.138 0.082-0.2 0.13-0.16 0.125-0.205 0.21-0.206 0.222s-0.010 0.25 0.56 0.814c0.764 0.769 1.237 1.829 1.237 2.999 0 0.428-0.063 0.842-0.181 1.232l0.008-0.030c-0.125 0.885-0.32 1.76-0.512 2.606 1.201-0.921 2.137-2.13 2.713-3.525l0.021-0.057c0.48-0.902 1.203-1.621 2.083-2.081l0.027-0.013c0.222-0.139 0.454-0.282 0.693-0.453 0.73-0.609 1.266-1.43 1.512-2.367l0.007-0.032c0.254-0.771 0.13-1.851-0.090-1.94-0.586 0.067-1.119 0.24-1.599 0.499l0.023-0.011c-0.296 0.143-0.654 0.284-1.023 0.398l-0.057 0.015c-0.23 0.062-0.494 0.098-0.766 0.098-0.776 0-1.484-0.289-2.023-0.766l0.003 0.003c-0.168-0.115-0.344-0.238-0.542-0.352-0.251-0.143-0.544-0.246-0.855-0.291l-0.013-0.002z"></path>
<path fill="#8a8b8a" style="fill: var(--color1, #8a8b8a)" d="M15.996 31.992c-8.834 0-15.996-7.162-15.996-15.996s7.162-15.996 15.996-15.996c8.834 0 15.996 7.162 15.996 15.996v0c-0.013 8.829-7.167 15.983-15.995 15.996h-0.001zM15.996 2c-7.73 0.003-13.995 6.27-13.995 14 0 7.732 6.268 14 14 14s14-6.268 14-14c0-0.001 0-0.002 0-0.003v0c-0.011-7.728-6.275-13.99-14.004-13.996h-0.001z"></path>
<path fill="#8a8b8a" style="fill: var(--color1, #8a8b8a)" d="M17.287 6.010c-0.118 0-0.237 0-0.358-0.013-0.713-0.086-1.362-0.288-1.953-0.588l0.033 0.015c-0.305-0.151-0.662-0.283-1.034-0.377l-0.038-0.008c-0.513-0.063-0.943-0.366-1.181-0.792l-0.004-0.008c-0.085-0.186-0.134-0.403-0.134-0.631 0-0.116 0.013-0.23 0.037-0.339l-0.002 0.010 0.062-0.274c0.040-0.162 0.070-0.353 0.081-0.548l0-0.009v-0.037c-0.068 0.017-0.147 0.026-0.227 0.026-0.552 0-1-0.448-1-1 0-0.328 0.158-0.619 0.402-0.802l0.003-0.002c0.273-0.196 0.614-0.313 0.983-0.313 0.484 0 0.921 0.202 1.23 0.527l0.001 0.001c0.377 0.4 0.608 0.94 0.608 1.535 0 0.035-0.001 0.070-0.002 0.105l0-0.005c-0.009 0.247-0.038 0.481-0.086 0.708l0.005-0.027c0.438 0.136 0.801 0.278 1.152 0.441l-0.056-0.023c0.365 0.191 0.788 0.335 1.236 0.409l0.025 0.003c0.018 0 0.040 0 0.062 0 0.647 0 1.275-0.082 1.874-0.236l-0.052 0.011 0.294-0.061c-0.144-0.27-0.228-0.591-0.228-0.932 0-0.078 0.004-0.154 0.013-0.229l-0.001 0.009c0.109-0.736 0.627-1.327 1.313-1.54l0.013-0.004c0.196-0.059 0.421-0.094 0.654-0.094 0.396 0 0.768 0.099 1.094 0.273l-0.013-0.006c0.309 0.174 0.515 0.5 0.515 0.874 0 0.552-0.448 1-1 1-0.151 0-0.294-0.033-0.422-0.093l0.006 0.003c-0.020-0.011-0.045-0.021-0.071-0.031l-0.004-0.001c0.018 0.022 0.037 0.050 0.059 0.078l0.11 0.138c0.26 0.29 0.468 0.632 0.607 1.008l0.007 0.022c0.031 0.092 0.048 0.197 0.048 0.307 0 0.547-0.439 0.991-0.983 1h-0.001c-0.586 0.034-1.133 0.118-1.662 0.248l0.062-0.013c-0.616 0.157-1.33 0.258-2.064 0.281l-0.016 0z"></path>
</symbol>
<symbol id="icon-sm-link-gray" viewBox="0 0 32 32">
<title>sm-link-gray</title>
<path fill="#8a8b8a" style="fill: var(--color1, #8a8b8a)" d="M2.187 19.232c-1.457 1.369-2.365 3.308-2.365 5.46 0 4.134 3.351 7.485 7.485 7.485 2.151 0 4.091-0.908 5.456-2.361l0.004-0.004 5.878-5.878c1.351-1.355 2.186-3.225 2.186-5.29s-0.835-3.935-2.187-5.29l0 0c-0.223-0.211-0.525-0.341-0.857-0.341-0.689 0-1.248 0.559-1.248 1.248 0 0.332 0.13 0.634 0.341 0.857l-0.001-0.001c0.912 0.898 1.477 2.146 1.477 3.527s-0.565 2.628-1.476 3.526l-0.001 0.001-5.878 5.877c-0.913 0.975-2.208 1.583-3.646 1.583-2.756 0-4.99-2.234-4.99-4.99 0-1.437 0.608-2.732 1.58-3.643l0.003-0.003 5.584-5.584c0.226-0.226 0.366-0.538 0.366-0.883 0-0.689-0.559-1.248-1.248-1.248-0.345 0-0.656 0.14-0.882 0.365l-5.584 5.584zM13.355 8.063c-1.351 1.355-2.186 3.225-2.186 5.29s0.835 3.935 2.187 5.29l-0-0c0.228 0.241 0.55 0.391 0.907 0.391 0.689 0 1.248-0.559 1.248-1.248 0-0.357-0.15-0.679-0.39-0.906l-0.001-0.001c-0.912-0.898-1.477-2.146-1.477-3.527s0.565-2.628 1.476-3.526l0.001-0.001 5.878-5.878c0.913-0.975 2.208-1.583 3.646-1.583 2.756 0 4.99 2.234 4.99 4.99 0 1.437-0.608 2.732-1.58 3.643l-0.003 0.003-5.584 5.584c-0.251 0.229-0.408 0.558-0.408 0.923 0 0.689 0.559 1.248 1.248 1.248 0.364 0 0.692-0.156 0.92-0.405l0.001-0.001 5.584-5.584c1.495-1.373 2.428-3.337 2.428-5.518 0-4.134-3.351-7.485-7.485-7.485-2.181 0-4.144 0.933-5.512 2.421l-0.005 0.005z"></path>
</symbol>
<symbol id="icon-sm-lrt-white" viewBox="0 0 32 32">
<title>sm-lrt-white</title>
<path fill="#fff" style="fill: var(--color3, #fff)" d="M11.312 27.867h9.291c0.018 0 0.039 0 0.060 0 2.532 0 4.585-2.053 4.585-4.585 0-0.021-0-0.042-0-0.064l0 0.003v-13.931c0-0.022 0.001-0.048 0.001-0.074 0-2.525-2.047-4.572-4.572-4.572-0.026 0-0.052 0-0.078 0.001l0.004-0h-9.291c-0.018-0-0.039-0-0.060-0-2.532 0-4.585 2.053-4.585 4.585 0 0.021 0 0.042 0 0.064l-0-0.003v13.936c-0 0.012-0 0.026-0 0.040 0 2.541 2.059 4.6 4.6 4.6 0.016 0 0.032-0 0.048-0l-0.002 0zM8.408 32.517h2.624l2.904-4.651h-2.624zM20.904 32.517h2.601l-2.903-4.651h-2.603zM15.957 23.227c1.246-0.087 2.236-1.076 2.322-2.315l0-0.008c-0.087-1.246-1.076-2.236-2.315-2.322l-0.008-0c-1.246 0.087-2.236 1.076-2.322 2.315l-0 0.008c0.087 1.246 1.076 2.236 2.315 2.322l0.008 0zM11.312 25.549c-0.055 0.005-0.118 0.008-0.182 0.008-1.186 0-2.148-0.962-2.148-2.148 0-0.064 0.003-0.128 0.008-0.191l-0.001 0.008v-13.936c-0.006-0.060-0.009-0.129-0.009-0.199 0-1.178 0.955-2.133 2.133-2.133 0.070 0 0.139 0.003 0.207 0.010l-0.009-0.001h9.291c0.062-0.006 0.134-0.010 0.207-0.010 1.174 0 2.125 0.952 2.125 2.125 0 0.073-0.004 0.145-0.011 0.216l0.001-0.009v13.936c0.006 0.060 0.009 0.129 0.009 0.199 0 1.178-0.955 2.133-2.133 2.133-0.070 0-0.139-0.003-0.207-0.010l0.009 0.001zM8.989 16.259h13.936v-2.323h-13.936zM14.8 4.645h2.323v-2.323h3.484v-2.323h-9.295v2.323h3.488z"></path>
</symbol>
<symbol id="icon-sm-magnifying-glass-gray" viewBox="0 0 32 32">
<title>sm-magnifying-glass-gray</title>
<path fill="#8a8b8a" style="fill: var(--color1, #8a8b8a)" d="M12.888-0.002c-0.009-0-0.019-0-0.030-0-7.118 0-12.888 5.77-12.888 12.888s5.77 12.888 12.888 12.888c3.098 0 5.94-1.093 8.163-2.914l-0.023 0.018 8.722 8.722c0.242 0.241 0.576 0.39 0.944 0.39s0.702-0.149 0.944-0.39l-0 0c0.241-0.239 0.391-0.571 0.391-0.938s-0.149-0.698-0.391-0.938l-8.722-8.722c1.799-2.198 2.889-5.036 2.889-8.13 0-7.115-5.768-12.883-12.883-12.883-0.002 0-0.004 0-0.006 0h0zM12.888 2.666c5.646 0 10.222 4.577 10.222 10.222s-4.577 10.222-10.222 10.222c-5.646 0-10.222-4.577-10.222-10.222v0c-0-0.007-0-0.015-0-0.022 0-5.634 4.567-10.202 10.202-10.202 0.007 0 0.015 0 0.022 0h-0.001z"></path>
</symbol>
<symbol id="icon-sm-pedestrian-gray" viewBox="0 0 17 32">
<title>sm-pedestrian-gray</title>
<path fill="#8a8b8a" style="fill: var(--color1, #8a8b8a)" d="M8.001 9.143c2.524-0.001 4.57-2.047 4.57-4.571s-2.047-4.571-4.571-4.571c-2.524 0-4.571 2.046-4.571 4.57v0c0.002 2.524 2.048 4.57 4.572 4.572h0zM8.001 2.286c1.263 0 2.286 1.024 2.286 2.286s-1.024 2.286-2.286 2.286c-1.263 0-2.286-1.024-2.286-2.286v0c0.001-1.262 1.024-2.285 2.286-2.286h0z"></path>
<path fill="#8a8b8a" style="fill: var(--color1, #8a8b8a)" d="M0 19.428c0.006-5.047 4.096-9.137 9.143-9.143h1.143c0.631 0 1.143 0.512 1.143 1.143v0 1.143c0.003 2.524 2.048 4.569 4.572 4.571h0c0.631 0 1.143 0.512 1.143 1.143s-0.512 1.143-1.143 1.143v0c-0.002 0-0.004 0-0.006 0-1.758 0-3.361-0.664-4.572-1.756l0.006 0.005v2.894c0 0.631-0.512 1.143-1.143 1.143s-1.143-0.512-1.143-1.143v0-8.001c-0.82 0.002-1.606 0.148-2.333 0.415l0.047-0.015v6.546c0 0.002 0 0.005 0 0.008 0 1.078 0.5 2.039 1.281 2.664l0.007 0.005 3.998 3.198c0.128 0.103 0.232 0.229 0.306 0.374l0.003 0.006 2.286 4.571c0.076 0.149 0.121 0.325 0.121 0.511 0 0.631-0.512 1.143-1.143 1.143-0.445 0-0.831-0.254-1.020-0.626l-0.003-0.006-2.174-4.347-1.831-1.46-0.74 2.234c-0.060 0.175-0.154 0.324-0.276 0.446l-3.429 3.429c-0.207 0.208-0.494 0.336-0.811 0.336-0.632 0-1.145-0.513-1.145-1.145 0-0.316 0.128-0.601 0.334-0.809l3.238-3.238 0.926-2.778-0.069-0.055c-1.312-1.051-2.144-2.652-2.144-4.448 0-0.005 0-0.010 0-0.015v0.001-5.185c-1.404 1.256-2.285 3.073-2.286 5.096v0c0 0.631-0.512 1.143-1.143 1.143s-1.143-0.512-1.143-1.143v0z"></path>
</symbol>
<symbol id="icon-sm-pencil-blue" viewBox="0 0 32 32">
<title>sm-pencil-blue</title>
<path fill="#0097d0" style="fill: var(--color2, #0097d0)" d="M31.502 6.594v0l-6.058-6.021c-0.354-0.356-0.845-0.576-1.387-0.576-0.447 0-0.858 0.15-1.188 0.402l0.005-0.003c-0.119 0.088-0.224 0.181-0.32 0.284l-0.001 0.001-19.663 19.633c-0.375 0.379-0.606 0.901-0.606 1.476 0 0.008 0 0.016 0 0.024v-0.001c-0.035 0.107-0.107 0.214-0.142 0.321l-2.102 8.046c-0.023 0.116-0.037 0.249-0.037 0.385 0 0.027 0.001 0.055 0.002 0.082l-0-0.004c-0.003 0.030-0.004 0.066-0.004 0.102 0 0.337 0.138 0.642 0.361 0.862l0 0c0.226 0.235 0.54 0.383 0.889 0.392l0.002 0h0.214c0.014 0.001 0.031 0.001 0.048 0.001 0.11 0 0.216-0.013 0.318-0.038l-0.009 0.002 8.088-1.927c0.178-0.037 0.334-0.112 0.466-0.216l-0.002 0.002c0.569-0.009 1.083-0.238 1.461-0.606l19.668-19.668c0.382-0.377 0.619-0.9 0.619-1.478 0-0.159-0.018-0.314-0.052-0.463l0.003 0.014c-0.121-0.397-0.317-0.74-0.573-1.028l0.002 0.003zM23.664 1.535c0.095-0.089 0.223-0.143 0.364-0.143 0.010 0 0.019 0 0.029 0.001l-0.001-0c0.155 0.006 0.293 0.073 0.392 0.177l0 0 0.107 0.107 5.952 5.945c0.099 0.107 0.16 0.251 0.16 0.41s-0.061 0.302-0.16 0.41l0-0-2.743 2.743c-0.107 0.099-0.251 0.16-0.41 0.16s-0.302-0.061-0.41-0.16l0 0-6.060-6.051c-0.109-0.096-0.178-0.236-0.178-0.392s0.069-0.296 0.177-0.391l0.001-0zM25.552 13.436c-0.107 0.099-0.251 0.16-0.41 0.16s-0.302-0.061-0.41-0.16l0 0-6.058-6.062c-0.099-0.107-0.16-0.251-0.16-0.41s0.061-0.302 0.16-0.41l-0 0 0.926-0.926c0.088 0.165 0.195 0.306 0.321 0.428l0 0 6.051 6.060c0.139 0.147 0.305 0.267 0.489 0.352l0.010 0.004zM3.924 30.040l-1.889-1.927 1.178-4.525 5.345 5.345zM10.836 28.22c-0.132 0.132-0.315 0.214-0.517 0.214s-0.384-0.082-0.517-0.214v0l-5.914-5.912c-0.131-0.127-0.212-0.303-0.214-0.499v-0c-0-0.006-0-0.013-0-0.020 0-0.19 0.083-0.361 0.214-0.479l0.001-0.001 13.468-13.468c0.118 0.205 0.236 0.38 0.364 0.546l-0.008-0.011 6.057 6.057c0.145 0.155 0.325 0.276 0.526 0.353l0.010 0.003z"></path>
</symbol>
<symbol id="icon-sm-plus-blue" viewBox="0 0 32 32">
<title>sm-plus-blue</title>
<path fill="#0097d0" style="fill: var(--color2, #0097d0)" opacity="0.999" d="M30.484 14.484h-12.968v-12.968c0-0.837-0.679-1.516-1.516-1.516s-1.516 0.679-1.516 1.516v0 12.968h-12.968c-0.837 0-1.516 0.679-1.516 1.516s0.679 1.516 1.516 1.516v0h12.968v12.968c0 0.837 0.679 1.516 1.516 1.516s1.516-0.679 1.516-1.516v0-12.968h12.968c0.837 0 1.516-0.679 1.516-1.516s-0.679-1.516-1.516-1.516v0z"></path>
</symbol>
<symbol id="icon-sm-location-toggler-blue" viewBox="0 0 32 32">
<title>sm-location-toggler-blue</title>
<path fill="#0097d0" style="fill: var(--color1, #0097d0)" d="M21.964 0.97c-0.42 0.007-0.794 0.197-1.047 0.493l-0.002 0.002-5.497 4.91c-0.29 0.259-0.471 0.634-0.471 1.051 0 0.778 0.631 1.409 1.409 1.409 0.361 0 0.69-0.136 0.939-0.359l-0.001 0.001 3.285-2.934v16.032c0 0.778 0.631 1.409 1.409 1.409s1.409-0.631 1.409-1.409v0-16.032l3.283 2.932c0.248 0.222 0.578 0.358 0.939 0.358 0.778 0 1.409-0.631 1.409-1.409 0-0.417-0.181-0.792-0.469-1.050l-0.001-0.001-5.497-4.91c-0.259-0.303-0.641-0.493-1.068-0.493-0.010 0-0.020 0-0.030 0l0.001-0zM9.996 9.918c-0.768 0.009-1.387 0.634-1.387 1.403 0 0.009 0 0.018 0 0.028l-0-0.001v16.032l-3.289-2.934c-0.248-0.222-0.578-0.358-0.939-0.358-0.778 0-1.409 0.631-1.409 1.409 0 0.417 0.181 0.792 0.469 1.050l0.001 0.001 5.485 4.898c0.259 0.315 0.649 0.514 1.085 0.514 0.425 0 0.806-0.189 1.064-0.488l0.002-0.002 5.501-4.914c0.289-0.259 0.47-0.634 0.47-1.051 0-0.778-0.631-1.409-1.409-1.409-0.361 0-0.691 0.136-0.94 0.359l0.001-0.001-3.281 2.924v-16.032c0-0.007 0-0.016 0-0.024 0-0.775-0.628-1.403-1.403-1.403-0.008 0-0.016 0-0.023 0l0.001-0z"></path>
</symbol>
<symbol id="icon-md-broadcast-red" viewBox="0 0 32 32">
<title>md-broadcast-red</title>
<path fill="#ed1b2e" style="fill: var(--color1, #ed1b2e)" d="M31.257 16.344c0.003-0.436-0.161-0.874-0.494-1.206s-0.77-0.497-1.206-0.494h-0c-3.823 0.008-7.644 1.471-10.562 4.388s-4.38 6.739-4.388 10.562v-0.001c0.012 0.418 0.178 0.833 0.498 1.153 0.664 0.664 1.742 0.664 2.406 0 0.32-0.32 0.486-0.735 0.498-1.154l-0 0.001c0.007-2.96 1.14-5.92 3.399-8.179s5.218-3.392 8.179-3.399h-0.001c0.426-0.004 0.852-0.169 1.177-0.494s0.49-0.751 0.494-1.178v0z"></path>
<path fill="#ed1b2e" style="fill: var(--color1, #ed1b2e)" d="M8.699 29.653c0.011-5.342 2.055-10.681 6.131-14.757s9.416-6.12 14.758-6.131h-0.001c0.453 0.013 0.909-0.153 1.253-0.498 0.664-0.664 0.664-1.742 0-2.406-0.345-0.345-0.801-0.511-1.252-0.498l-0.001 0c-6.205 0.011-12.407 2.383-17.142 7.118s-7.107 10.937-7.118 17.143v-0.001c0.013 0.412 0.178 0.821 0.493 1.136 0.659 0.659 1.728 0.659 2.386 0 0.308-0.308 0.472-0.706 0.492-1.109l-0 0.002z"></path>
</symbol>
<symbol id="icon-md-bus-boradcast-white" viewBox="0 0 32 32">
<title>md-bus-boradcast-white</title>
<path fill="#fff" style="fill: var(--color2, #fff)" d="M13.417 6.065c0.001-0.162-0.060-0.324-0.183-0.448s-0.286-0.185-0.447-0.183h-0c-1.419 0.003-2.836 0.546-3.919 1.628s-1.625 2.5-1.628 3.919v-0c0.004 0.155 0.066 0.309 0.185 0.428 0.247 0.247 0.646 0.247 0.893 0 0.119-0.119 0.18-0.273 0.185-0.428v0c0.002-1.099 0.423-2.197 1.261-3.035s1.936-1.259 3.035-1.261h-0c0.158-0.001 0.316-0.063 0.437-0.183s0.182-0.279 0.183-0.437v0z"></path>
<path fill="#fff" style="fill: var(--color2, #fff)" d="M5.046 11.003c0.004-1.982 0.762-3.963 2.275-5.476s3.494-2.271 5.476-2.275h-0c0.168 0.005 0.337-0.057 0.465-0.185 0.247-0.247 0.247-0.646 0-0.893-0.128-0.128-0.297-0.189-0.465-0.185h-0c-2.302 0.004-4.604 0.884-6.361 2.641s-2.637 4.058-2.641 6.361v-0c0.005 0.153 0.066 0.305 0.183 0.422 0.245 0.245 0.641 0.245 0.886 0 0.114-0.114 0.175-0.262 0.183-0.412l-0 0.001z"></path>
<path fill="#fff" style="fill: var(--color2, #fff)" d="M24.592 9.089h-10.629c-0.089-0.009-0.193-0.014-0.297-0.014-1.8 0-3.26 1.459-3.26 3.26 0 0.105 0.005 0.208 0.015 0.31l-0.001-0.013v19.487h1.772v-2.657h14.172v2.657h1.772v-19.487c0.009-0.089 0.014-0.193 0.014-0.297 0-1.8-1.459-3.26-3.26-3.26-0.105 0-0.208 0.005-0.31 0.015l0.013-0.001zM26.364 27.69h-14.172v-15.055c0.067-0.95 0.821-1.705 1.766-1.771l0.006-0h10.629c0.95 0.067 1.705 0.821 1.771 1.766l0 0.006zM15.734 25.919v-1.772h-1.771v1.772zM24.591 24.147h-1.771v1.772h1.772zM8.648 22.375h21.259v-1.772h-21.259zM20.163 21.932v-6.644h-1.769v6.644zM10.417 16.175h17.718v-1.772h-17.716z"></path>
</symbol>
<symbol id="icon-md-bus-broadcast-gray" viewBox="0 0 32 32">
<title>md-bus-broadcast-gray</title>
<path fill="#8a8b8a" style="fill: var(--color3, #8a8b8a)" d="M13.417 6.065c0.001-0.162-0.060-0.324-0.183-0.448s-0.286-0.185-0.447-0.183h-0c-1.419 0.003-2.836 0.546-3.919 1.628s-1.625 2.5-1.628 3.919v-0c0.004 0.155 0.066 0.309 0.185 0.428 0.247 0.247 0.646 0.247 0.893 0 0.119-0.119 0.18-0.273 0.185-0.428v0c0.002-1.099 0.423-2.197 1.261-3.035s1.936-1.259 3.035-1.261h-0c0.158-0.001 0.316-0.063 0.437-0.183s0.182-0.279 0.183-0.437v0z"></path>
<path fill="#8a8b8a" style="fill: var(--color3, #8a8b8a)" d="M5.046 11.003c0.004-1.982 0.762-3.963 2.275-5.476s3.494-2.271 5.476-2.275h-0c0.168 0.005 0.337-0.057 0.465-0.185 0.247-0.247 0.247-0.646 0-0.893-0.128-0.128-0.297-0.189-0.465-0.185h-0c-2.302 0.004-4.604 0.884-6.361 2.641s-2.637 4.058-2.641 6.361v-0c0.005 0.153 0.066 0.305 0.183 0.422 0.245 0.245 0.641 0.245 0.886 0 0.114-0.114 0.175-0.262 0.183-0.412l-0 0.001z"></path>
<path fill="#8a8b8a" style="fill: var(--color3, #8a8b8a)" d="M24.592 9.089h-10.629c-0.089-0.009-0.193-0.014-0.297-0.014-1.8 0-3.26 1.459-3.26 3.26 0 0.105 0.005 0.208 0.015 0.31l-0.001-0.013v19.487h1.772v-2.657h14.172v2.657h1.772v-19.487c0.009-0.089 0.014-0.193 0.014-0.297 0-1.8-1.459-3.26-3.26-3.26-0.105 0-0.208 0.005-0.31 0.015l0.013-0.001zM26.364 27.69h-14.172v-15.055c0.067-0.95 0.821-1.705 1.766-1.771l0.006-0h10.629c0.95 0.067 1.705 0.821 1.771 1.766l0 0.006zM15.734 25.919v-1.772h-1.771v1.772zM24.591 24.147h-1.771v1.772h1.772zM8.648 22.375h21.259v-1.772h-21.259zM20.163 21.932v-6.644h-1.769v6.644zM10.417 16.175h17.718v-1.772h-17.716z"></path>
</symbol>
<symbol id="icon-md-chevron-up-white" viewBox="0 0 32 32">
<title>md-chevron-up-white</title>
<path fill="#fff" style="fill: var(--color2, #fff)" d="M31.015 24.347c-0.408-0.002-0.776-0.169-1.042-0.437l-0-0-13.73-13.268-13.726 13.268c-0.271 0.295-0.658 0.479-1.089 0.479-0.816 0-1.477-0.661-1.477-1.477 0-0.447 0.199-0.848 0.512-1.119l0.002-0.002 14.756-14.26c0.265-0.257 0.628-0.415 1.027-0.415s0.761 0.158 1.027 0.415l-0-0 14.756 14.26c0.291 0.271 0.472 0.655 0.472 1.083 0 0.816-0.661 1.477-1.477 1.477-0.002 0-0.005 0-0.007 0h0z"></path>
</symbol>
<symbol id="icon-md-cicrle-blue-lrt" viewBox="0 0 32 32">
<title>md-cicrle-blue-lrt</title>
<path fill="#0053a0" style="fill: var(--color4, #0053a0)" d="M32 16c0 8.837-7.163 16-16 16s-16-7.163-16-16c0-8.837 7.163-16 16-16s16 7.163 16 16z"></path>
<path fill="#fff" style="fill: var(--color2, #fff)" d="M13.060 23.917h6.741c0.013 0 0.028 0 0.043 0 1.838 0 3.328-1.49 3.328-3.328 0-0.015-0-0.030-0-0.045l0 0.002v-10.113c0-0.016 0-0.035 0-0.054 0-1.832-1.485-3.317-3.317-3.317-0.019 0-0.038 0-0.057 0l0.003-0h-6.741c-0.013-0-0.028-0-0.043-0-1.838 0-3.328 1.49-3.328 3.328 0 0.015 0 0.030 0 0.045l-0-0.002v10.112c-0 0.010-0 0.022-0 0.034 0 1.843 1.494 3.338 3.338 3.338 0.012 0 0.023-0 0.035-0h-0.002zM10.953 27.288h1.905l2.107-3.371h-1.905zM20.020 27.288h1.888l-2.107-3.371h-1.887zM16.429 20.547c0.907-0.062 1.627-0.782 1.689-1.683l0-0.006c-0.062-0.907-0.782-1.627-1.683-1.689l-0.006-0c-0.907 0.062-1.627 0.782-1.689 1.683l-0 0.006c0.062 0.907 0.783 1.628 1.684 1.689l0.006 0zM13.059 22.236c-0.041 0.004-0.089 0.006-0.137 0.006-0.861 0-1.558-0.698-1.558-1.558 0-0.048 0.002-0.096 0.006-0.143l-0 0.006v-10.113c-0.004-0.044-0.007-0.094-0.007-0.146 0-0.856 0.694-1.55 1.55-1.55 0.051 0 0.102 0.002 0.152 0.007l-0.006-0.001h6.741c0.046-0.005 0.1-0.008 0.154-0.008 0.852 0 1.542 0.69 1.542 1.542 0 0.054-0.003 0.108-0.008 0.161l0.001-0.007v10.112c0.004 0.044 0.007 0.094 0.007 0.145 0 0.856-0.694 1.55-1.55 1.55-0.051 0-0.102-0.003-0.152-0.007l0.006 0zM11.378 15.491h10.109v-1.689h-10.109zM15.591 7.064h1.689v-1.689h2.528v-1.689h-6.748v1.689h2.528z"></path>
</symbol>
<symbol id="icon-md-circle-dollar-green" viewBox="0 0 32 32">
<title>md-circle-dollar-green</title>
<path fill="#a5cf4c" style="fill: var(--color5, #a5cf4c)" d="M16 1.707c7.895 0 14.294 6.4 14.294 14.294s-6.4 14.294-14.294 14.294c-7.894 0-14.294-6.4-14.294-14.294 0-0.001 0-0.002 0-0.003v0c0.011-7.89 6.404-14.283 14.293-14.292h0.001zM16 0c-8.837 0-16 7.163-16 16s7.163 16 16 16c8.837 0 16-7.163 16-16 0-0.001 0-0.001 0-0.002v0c0-8.836-7.163-15.998-15.998-15.998-0.001 0-0.001 0-0.002 0h0z"></path>
<path fill="#a5cf4c" style="fill: var(--color5, #a5cf4c)" d="M16.935 15.128c-2.655-0.818-3.4-2.26-3.23-3.247 0.152-0.894 1.105-1.798 2.885-1.798 0.018-0 0.039-0.001 0.060-0.001 1.366 0 2.505 0.973 2.762 2.263l0.003 0.018c0.126 0.497 0.57 0.859 1.098 0.859 0.067 0 0.132-0.006 0.196-0.017l-0.007 0.001c0.495-0.072 0.871-0.493 0.871-1.002 0-0.073-0.008-0.145-0.023-0.214l0.001 0.007c-0.392-2.016-1.982-3.571-3.985-3.906l-0.029-0.004v-1.809c0-0.569-0.461-1.030-1.030-1.030s-1.030 0.461-1.030 1.030v1.815c-2.060 0.362-3.64 1.683-3.943 3.458-0.306 1.798 0.737 4.334 4.723 5.562 2.096 0.646 3.23 1.68 3.046 2.77-0.159 0.935-1.36 1.907-3.1 1.907-2.975 0-3.189-1.52-3.201-1.805-0.020-0.581-0.495-1.045-1.080-1.045-0.012 0-0.024 0-0.035 0.001l0.002-0c-0.009-0-0.019-0-0.030-0-0.58 0-1.051 0.466-1.058 1.044v0.001c0 1.262 0.898 3.578 4.674 3.865v1.468c0 0.569 0.461 1.030 1.030 1.030s1.030-0.461 1.030-1.030v-1.599c2.060-0.451 3.612-1.809 3.899-3.508 0.139-0.82 0.279-3.612-4.501-5.082z"></path>
</symbol>
<symbol id="icon-md-circle-green-lrt" viewBox="0 0 32 32">
<title>md-circle-green-lrt</title>
<path fill="#008244" style="fill: var(--color6, #008244)" d="M32 16c0 8.837-7.163 16-16 16s-16-7.163-16-16c0-8.837 7.163-16 16-16s16 7.163 16 16z"></path>
<path fill="#fff" style="fill: var(--color2, #fff)" d="M13.060 23.917h6.741c0.013 0 0.028 0 0.043 0 1.838 0 3.328-1.49 3.328-3.328 0-0.015-0-0.030-0-0.045l0 0.002v-10.113c0-0.016 0-0.035 0-0.054 0-1.832-1.485-3.317-3.317-3.317-0.019 0-0.038 0-0.057 0l0.003-0h-6.741c-0.013-0-0.028-0-0.043-0-1.838 0-3.328 1.49-3.328 3.328 0 0.015 0 0.030 0 0.045l-0-0.002v10.112c-0 0.010-0 0.022-0 0.034 0 1.843 1.494 3.338 3.338 3.338 0.012 0 0.023-0 0.035-0h-0.002zM10.953 27.288h1.905l2.107-3.371h-1.905zM20.020 27.288h1.888l-2.107-3.371h-1.887zM16.429 20.547c0.907-0.062 1.627-0.782 1.689-1.683l0-0.006c-0.062-0.907-0.782-1.627-1.683-1.689l-0.006-0c-0.907 0.062-1.627 0.782-1.689 1.683l-0 0.006c0.062 0.907 0.783 1.628 1.684 1.689l0.006 0zM13.059 22.236c-0.041 0.004-0.089 0.006-0.137 0.006-0.861 0-1.558-0.698-1.558-1.558 0-0.048 0.002-0.096 0.006-0.143l-0 0.006v-10.113c-0.004-0.044-0.007-0.094-0.007-0.146 0-0.856 0.694-1.55 1.55-1.55 0.051 0 0.102 0.002 0.152 0.007l-0.006-0.001h6.741c0.046-0.005 0.1-0.008 0.154-0.008 0.852 0 1.542 0.69 1.542 1.542 0 0.054-0.003 0.108-0.008 0.161l0.001-0.007v10.112c0.004 0.044 0.007 0.094 0.007 0.145 0 0.856-0.694 1.55-1.55 1.55-0.051 0-0.102-0.003-0.152-0.007l0.006 0zM11.378 15.491h10.109v-1.689h-10.109zM15.591 7.064h1.689v-1.689h2.528v-1.689h-6.748v1.689h2.528z"></path>
</symbol>
<symbol id="icon-md-circle-lrt-green" viewBox="0 0 32 32">
<title>md-circle-lrt-green</title>
<path fill="#008244" style="fill: var(--color6, #008244)" d="M16.013 32.018c-8.842 0-16-7.158-16-16s7.158-16 16-16 16 7.158 16 16-7.158 16-16 16zM16.013 1.702c-7.916 0-14.316 6.4-14.316 14.316s6.4 14.316 14.316 14.316 14.316-6.4 14.316-14.316-6.4-14.316-14.316-14.316z"></path>
<path fill="#008244" style="fill: var(--color6, #008244)" d="M13.221 23.54h6.4c1.768 0 3.2-1.347 3.2-3.116 0 0 0-0.084 0-0.084v-9.6c0-1.768-1.347-3.2-3.116-3.2 0 0-0.084 0-0.084 0h-6.4c-1.768 0-3.2 1.347-3.2 3.116 0 0 0 0.084 0 0.084v9.6c0 1.684 1.347 3.116 3.2 3.2-0.084 0 0 0 0 0zM11.2 26.656h1.768l2.021-3.2h-1.768l-2.021 3.2zM19.789 26.656h1.768l-2.021-3.2h-1.684l1.937 3.2zM16.421 20.34c0.842-0.084 1.516-0.758 1.6-1.6-0.084-0.842-0.758-1.516-1.6-1.6-0.842 0.084-1.516 0.758-1.6 1.6 0.084 0.842 0.758 1.516 1.6 1.6v0zM13.221 21.94c-0.842 0.084-1.516-0.505-1.6-1.347 0-0.084 0-0.168 0-0.253v-9.6c-0.084-0.842 0.505-1.516 1.347-1.6 0.084 0 0.168 0 0.253 0h6.4c0.842-0.084 1.516 0.505 1.6 1.347 0 0.084 0 0.168 0 0.253v9.6c0.084 0.842-0.505 1.516-1.347 1.6-0.084 0-0.168 0-0.253 0h-6.4zM11.621 15.54h9.6v-1.6h-9.6v1.6zM15.579 7.54h1.6v-1.6h2.358v-1.6h-6.316v1.6h2.358v1.6z"></path>
</symbol>
<symbol id="icon-md-circle-pedestrian-color" viewBox="0 0 32 32">
<title>md-circle-pedestrian-color</title>
<path fill="#a5cf4c" style="fill: var(--color5, #a5cf4c)" d="M16 32c-8.842 0-16-7.158-16-16s7.158-16 16-16v0c4.295 0 8.253 1.684 11.284 4.716 3.032 2.947 4.716 7.074 4.716 11.284 0 8.842-7.158 16-16 16zM16 1.684c-7.916 0-14.316 6.4-14.316 14.316s6.4 14.316 14.316 14.316 14.316-6.4 14.316-14.316c0-3.789-1.516-7.495-4.211-10.105-2.695-2.695-6.316-4.211-10.105-4.211v0z"></path>
<path fill="#8a8b8a" style="fill: var(--color3, #8a8b8a)" d="M15.815 12.098c1.432 0 2.611-1.179 2.611-2.611-0.084-1.347-1.179-2.526-2.611-2.526s-2.611 1.179-2.611 2.611c0 1.432 1.179 2.526 2.611 2.526zM15.815 8.224c0.674 0 1.263 0.589 1.263 1.263s-0.589 1.263-1.263 1.263c-0.674 0-1.263-0.589-1.263-1.263 0 0 0 0 0 0-0.084-0.674 0.505-1.263 1.263-1.263v0z"></path>
<path fill="#8a8b8a" style="fill: var(--color3, #8a8b8a)" d="M11.267 17.908c0-2.863 2.274-5.137 5.137-5.137h0.674c0.337 0 0.674 0.253 0.674 0.674v0 0.674c0 1.432 1.179 2.611 2.611 2.611 0.337 0 0.674 0.337 0.589 0.674 0 0.337-0.253 0.589-0.589 0.589-0.926 0-1.853-0.337-2.611-1.011v1.6c0 0.337-0.337 0.674-0.674 0.589-0.337 0-0.589-0.253-0.589-0.589v-4.547c-0.421 0-0.842 0.084-1.263 0.253v3.705c0 0.589 0.253 1.179 0.758 1.516l2.105 1.768c0.084 0.084 0.168 0.168 0.168 0.253l1.263 2.611c0.168 0.337 0 0.674-0.253 0.842s-0.674 0-0.842-0.253c0 0 0 0 0 0l-1.263-2.442-1.011-0.842-0.421 1.263c0 0.084-0.084 0.168-0.168 0.253l-1.937 1.937c-0.253 0.253-0.674 0.253-0.926 0s-0.253-0.674 0-0.842l1.853-1.937 0.505-1.6c-0.758-0.589-1.179-1.516-1.179-2.526v-2.947c-0.842 0.758-1.263 1.768-1.263 2.863 0 0.337-0.337 0.674-0.674 0.589-0.421 0.084-0.674-0.253-0.674-0.589v0z"></path>
</symbol>
<symbol id="icon-md-circle-pedestrian-gray" viewBox="0 0 32 32">
<title>md-circle-pedestrian-gray</title>
<path fill="#fff" style="fill: var(--color2, #fff)" d="M16 0.842c8.337 0 15.158 6.821 15.158 15.158s-6.821 15.158-15.158 15.158-15.158-6.821-15.158-15.158 6.821-15.158 15.158-15.158z"></path>
<path fill="#8a8b8a" style="fill: var(--color3, #8a8b8a)" d="M16 32c-8.842 0-16-7.158-16-16s7.158-16 16-16 16 7.158 16 16-7.158 16-16 16zM16 1.684c-7.916 0-14.316 6.4-14.316 14.316s6.4 14.316 14.316 14.316 14.316-6.4 14.316-14.316-6.4-14.316-14.316-14.316z"></path>
<path fill="#8a8b8a" style="fill: var(--color3, #8a8b8a)" d="M15.815 12.098c1.432 0 2.611-1.179 2.611-2.611-0.084-1.347-1.179-2.526-2.611-2.526s-2.611 1.179-2.611 2.611c0 1.432 1.179 2.526 2.611 2.526zM15.815 8.224c0.674 0 1.263 0.589 1.263 1.263s-0.589 1.263-1.263 1.263c-0.674 0-1.263-0.589-1.263-1.263 0 0 0 0 0 0-0.084-0.674 0.505-1.263 1.263-1.263v0z"></path>
<path fill="#8a8b8a" style="fill: var(--color3, #8a8b8a)" d="M11.267 17.908c0-2.863 2.274-5.137 5.137-5.137h0.674c0.337 0 0.674 0.253 0.674 0.674v0 0.674c0 1.432 1.179 2.611 2.611 2.611 0.337 0 0.674 0.337 0.589 0.674 0 0.337-0.253 0.589-0.589 0.589-0.926 0-1.853-0.337-2.611-1.011v1.6c0 0.337-0.337 0.674-0.674 0.589-0.337 0-0.589-0.253-0.589-0.589v-4.547c-0.421 0-0.842 0.084-1.263 0.253v3.705c0 0.589 0.253 1.179 0.758 1.516l2.105 1.768c0.084 0.084 0.168 0.168 0.168 0.253l1.263 2.611c0.168 0.337 0 0.674-0.253 0.842s-0.674 0-0.842-0.253c0 0 0 0 0 0l-1.263-2.442-1.011-0.842-0.421 1.263c0 0.084-0.084 0.168-0.168 0.253l-1.937 1.937c-0.253 0.253-0.674 0.253-0.926 0s-0.253-0.674 0-0.842l1.853-1.937 0.505-1.6c-0.758-0.589-1.179-1.516-1.179-2.526v-2.947c-0.842 0.758-1.263 1.768-1.263 2.863 0 0.337-0.337 0.674-0.674 0.589-0.421 0.084-0.674-0.253-0.674-0.589v0z"></path>
</symbol>
<symbol id="icon-md-circle-pin-color" viewBox="0 0 32 32">
<title>md-circle-pin-color</title>
<path fill="#a5cf4c" style="fill: var(--color5, #a5cf4c)" d="M16 32c-8.842 0-16-7.158-16-16s7.158-16 16-16v0c4.295 0 8.253 1.684 11.284 4.716 3.032 2.947 4.716 7.074 4.716 11.284 0 8.842-7.158 16-16 16zM16 1.684c-7.916 0-14.316 6.4-14.316 14.316s6.4 14.316 14.316 14.316 14.316-6.4 14.316-14.316c0-3.789-1.516-7.495-4.211-10.105-2.695-2.695-6.316-4.211-10.105-4.211v0z"></path>
<path fill="#ed1b2e" style="fill: var(--color1, #ed1b2e)" d="M16 32c-8.842 0-16-7.158-16-16s7.158-16 16-16v0c4.295 0 8.253 1.684 11.284 4.716 3.032 2.947 4.716 7.074 4.716 11.284 0 8.842-7.158 16-16 16zM16 1.684c-7.916 0-14.316 6.4-14.316 14.316s6.4 14.316 14.316 14.316 14.316-6.4 14.316-14.316c0-3.789-1.516-7.495-4.211-10.105-2.695-2.695-6.316-4.211-10.105-4.211v0z"></path>
<path fill="#8a8b8a" style="fill: var(--color3, #8a8b8a)" d="M15.994 8.627c-3.702 0.13-6.543 3.177-6.413 6.879 0.029 0.841 0.227 1.677 0.59 2.422 0.636 1.325 1.434 2.477 2.317 3.625 0.973 1.314 2.113 2.621 2.912 3.773 0.177 0.246 0.601 0.316 0.847 0.139 0.084-0.003 0.081-0.087 0.165-0.090v0c0.968-1.213 2.267-2.606 3.398-3.994 1.055-1.132 1.939-2.342 2.562-3.796 0.31-0.769 0.53-1.703 0.5-2.544-0.13-3.702-3.261-6.54-6.879-6.413v0zM16.035 9.805c3.029-0.106 5.47 2.251 5.573 5.195 0 0 0 0 0 0 0.024 0.673-0.118 1.436-0.35 2.034 0 0 0 0 0 0v0c-0.632 1.201-1.348 2.406-2.325 3.366-0.971 1.129-2.024 2.345-2.914 3.387-0.795-1.067-1.675-2.131-2.47-3.198-0.877-0.98-1.591-2.134-2.137-3.294 0 0 0 0 0 0v0c-0.438-0.49-0.63-1.157-0.654-1.83-0.106-3.029 2.248-5.554 5.277-5.66 0 0 0 0 0 0v0zM16.121 12.244c-1.683 0.059-2.981 1.452-2.922 3.135s1.452 2.981 3.135 2.922 2.981-1.452 2.922-3.135c-0.059-1.683-1.452-2.981-3.135-2.922v0zM16.162 13.422c1.010-0.035 1.88 0.776 1.913 1.702 0.035 1.010-0.776 1.88-1.702 1.913-1.010 0.035-1.88-0.776-1.913-1.702 0 0 0 0 0 0-0.12-1.007 0.692-1.877 1.702-1.913 0 0 0 0 0 0v0z"></path>
</symbol>
<symbol id="icon-md-circle-red-bus" viewBox="0 0 32 32">
<title>md-circle-red-bus</title>
<path fill="#ed1b2e" style="fill: var(--color1, #ed1b2e)" d="M32 16c0 8.837-7.163 16-16 16s-16-7.163-16-16c0-8.837 7.163-16 16-16s16 7.163 16 16z"></path>
<path fill="#fff" style="fill: var(--color2, #fff)" d="M20.38 6.018h-9.329c-0.079-0.008-0.17-0.012-0.263-0.012-1.58 0-2.86 1.281-2.86 2.86 0 0.093 0.004 0.184 0.013 0.274l-0.001-0.012v17.103h1.557v-2.332h12.437v2.332h1.555v-17.105c0.008-0.078 0.012-0.169 0.012-0.261 0-1.58-1.281-2.86-2.86-2.86-0.092 0-0.183 0.004-0.272 0.013l0.011-0.001zM21.934 22.343h-12.437v-13.216c0.059-0.833 0.72-1.495 1.548-1.553l0.005-0h9.333c0.834 0.058 1.496 0.721 1.554 1.549l0 0.005zM12.608 20.788v-1.555h-1.557v1.555zM20.382 19.234h-1.558v1.555h1.555zM6.386 17.679h18.658v-1.555h-18.658zM16.492 17.291v-5.83h-1.555v5.83zM7.94 12.237h15.548v-1.553h-15.548z"></path>
</symbol>
<symbol id="icon-md-circle-train-gray" viewBox="0 0 32 32">
<title>md-circle-train-gray</title>
<path fill="#8a8b8a" style="fill: var(--color3, #8a8b8a)" d="M16.125 8.813l-4.042 1.853c-0.421 0.337-1.095 1.179-1.095 2.105v4.379c0 1.179 0.842 2.105 1.937 2.105h6.063c1.095 0 1.937-0.926 1.937-2.105v-4.379c0-0.926-0.674-1.768-1.095-2.189l-3.705-1.768zM16.125 6.961l4.716 2.274c0 0 1.853 1.516 1.853 3.621v4.379c0 2.105-1.6 3.789-3.621 3.789h-6.147c-2.021 0-3.621-1.684-3.621-3.789v-4.463c0-2.105 1.853-3.621 1.853-3.621l4.968-2.189z"></path>
<path fill="#8a8b8a" style="fill: var(--color3, #8a8b8a)" d="M14.143 16.435c0 0.512-0.415 0.926-0.926 0.926s-0.926-0.415-0.926-0.926c0-0.512 0.415-0.926 0.926-0.926s0.926 0.415 0.926 0.926z"></path>
<path fill="#8a8b8a" style="fill: var(--color3, #8a8b8a)" d="M20.291 16.435c0 0.512-0.415 0.926-0.926 0.926s-0.926-0.415-0.926-0.926c0-0.512 0.415-0.926 0.926-0.926s0.926 0.415 0.926 0.926z"></path>
<path fill="#8a8b8a" style="fill: var(--color3, #8a8b8a)" d="M15.154 4.562h1.684v3.032h-1.684v-3.032z"></path>
<path fill="#8a8b8a" style="fill: var(--color3, #8a8b8a)" d="M16.075 5.544c-0.253 0-0.674 0.168-1.011 0.421h-0.084l-0.084 0.084c0 0-0.842 0.421-1.432 0.926v0 0c-1.095 0.926-1.263 1.347-1.263 1.516l0.084-0.084 3.032-1.179 0.589-0.253 0.589 0.253 3.032 1.179 0.253 0.084c0-0.253-0.337-0.758-1.095-1.432-0.758-0.589-1.516-1.011-1.516-1.011l-0.168-0.084-0.084-0.084c-0.253-0.084-0.674-0.337-0.842-0.337zM16.075 3.859c0.926 0 1.853 0.674 1.853 0.674s3.537 1.853 3.537 4.042v3.284l-2.442-1.853-3.032-1.179-3.032 1.179-2.442 1.853v-3.284c0-1.095 0.842-2.021 1.853-2.863 0.758-0.674 1.768-1.179 1.768-1.179s1.011-0.674 1.937-0.674z"></path>
<path fill="#8a8b8a" style="fill: var(--color3, #8a8b8a)" d="M17.175 11.888c0 0.651-0.528 1.179-1.179 1.179s-1.179-0.528-1.179-1.179c0-0.651 0.528-1.179 1.179-1.179s1.179 0.528 1.179 1.179z"></path>
<path fill="#8a8b8a" style="fill: var(--color3, #8a8b8a)" d="M10.522 19.804l-2.442 6.063h1.179l2.442-6.063h-1.179z"></path>
<path fill="#8a8b8a" style="fill: var(--color3, #8a8b8a)" d="M9.512 26.204h-1.937l2.695-6.737h1.937l-2.695 6.737zM8.585 25.53h0.505l2.189-5.474h-0.589l-2.105 5.474z"></path>
<path fill="#8a8b8a" style="fill: var(--color3, #8a8b8a)" d="M21.469 19.804l2.442 6.063h-1.179l-2.442-6.063h1.179z"></path>
<path fill="#8a8b8a" style="fill: var(--color3, #8a8b8a)" d="M24.417 26.204h-1.937l-2.695-6.737h1.937l2.695 6.737zM22.901 25.53h0.505l-2.189-5.474h-0.505l2.189 5.474z"></path>
<path fill="#8a8b8a" style="fill: var(--color3, #8a8b8a)" d="M9.933 22.246h11.537v0.926h-11.537v-0.926z"></path>
<path fill="#8a8b8a" style="fill: var(--color3, #8a8b8a)" d="M21.806 23.425h-12.211v-1.516h12.211v1.516zM10.185 22.835h10.947v-0.253h-10.947v0.253z"></path>
<path fill="#8a8b8a" style="fill: var(--color3, #8a8b8a)" d="M9.259 24.941h13.389v0.926h-13.389v-0.926z"></path>
<path fill="#8a8b8a" style="fill: var(--color3, #8a8b8a)" d="M22.985 26.204h-13.979v-1.516h14.063v1.516zM9.596 25.53h12.8v-0.253h-12.8v0.253z"></path>
<path fill="#8a8b8a" style="fill: var(--color3, #8a8b8a)" d="M16 32c-8.842 0-16-7.158-16-16s7.158-16 16-16 16 7.158 16 16-7.158 16-16 16zM16 1.684c-7.916 0-14.316 6.4-14.316 14.316s6.4 14.316 14.316 14.316 14.316-6.4 14.316-14.316-6.4-14.316-14.316-14.316z"></path>
</symbol>
<symbol id="icon-md-triangle-exclamation-red" viewBox="0 0 32 32">
<title>md-triangle-exclamation-red</title>
<path fill="#ed1b2e" style="fill: var(--color1, #ed1b2e)" d="M27.541 30.481h-23.441c-0.002 0-0.004 0-0.005 0-2.258 0-4.088-1.83-4.088-4.088 0-0.754 0.204-1.46 0.56-2.066l-0.010 0.019 11.723-20.3c0.72-1.23 2.035-2.043 3.54-2.043s2.82 0.813 3.53 2.024l0.010 0.019 11.72 20.3c0.345 0.587 0.548 1.292 0.548 2.045 0 2.258-1.83 4.088-4.087 4.089h-0zM15.818 4.636c-0.005-0-0.011-0-0.018-0-0.529 0-0.991 0.29-1.235 0.719l-0.004 0.007-11.725 20.302c-0.123 0.209-0.196 0.46-0.196 0.728 0 0.802 0.651 1.453 1.453 1.453 0.002 0 0.004 0 0.006 0h23.441c0.802-0.001 1.451-0.651 1.451-1.453 0-0.268-0.072-0.518-0.199-0.734l0.004 0.007-11.72-20.3c-0.249-0.438-0.712-0.729-1.244-0.729-0.005 0-0.011 0-0.016 0h0.001z"></path>
<path fill="#ed1b2e" style="fill: var(--color1, #ed1b2e)" d="M16.042 20.401c-0 0-0.001 0-0.001 0-0.727 0-1.317-0.59-1.317-1.317 0-0 0-0.001 0-0.001v0-7.257c0-0.728 0.59-1.318 1.318-1.318s1.318 0.59 1.318 1.318v0 7.256c0 0.001 0 0.001 0 0.002 0 0.727-0.59 1.317-1.317 1.317-0 0-0.001 0-0.001 0h0z"></path>
<path fill="#ed1b2e" style="fill: var(--color1, #ed1b2e)" d="M17.624 23.474c0 0.874-0.708 1.582-1.582 1.582s-1.582-0.708-1.582-1.582c0-0.874 0.708-1.582 1.582-1.582s1.582 0.708 1.582 1.582z"></path>
</symbol>
<symbol id="icon-md-triangle-exclamation-white" viewBox="0 0 32 32">
<title>md-triangle-exclamation-white</title>
<path fill="#fff" style="fill: var(--color2, #fff)" d="M27.541 30.481h-23.441c-0.002 0-0.004 0-0.005 0-2.258 0-4.088-1.83-4.088-4.088 0-0.754 0.204-1.46 0.56-2.066l-0.010 0.019 11.723-20.3c0.72-1.23 2.035-2.043 3.54-2.043s2.82 0.813 3.53 2.024l0.010 0.019 11.72 20.3c0.345 0.587 0.548 1.292 0.548 2.045 0 2.258-1.83 4.088-4.087 4.089h-0zM15.818 4.636c-0.005-0-0.011-0-0.018-0-0.529 0-0.991 0.29-1.235 0.719l-0.004 0.007-11.725 20.302c-0.123 0.209-0.196 0.46-0.196 0.728 0 0.802 0.651 1.453 1.453 1.453 0.002 0 0.004 0 0.006 0h23.441c0.802-0.001 1.451-0.651 1.451-1.453 0-0.268-0.072-0.518-0.199-0.734l0.004 0.007-11.72-20.3c-0.249-0.438-0.712-0.729-1.244-0.729-0.005 0-0.011 0-0.016 0h0.001z"></path>
<path fill="#fff" style="fill: var(--color2, #fff)" d="M16.042 20.401c-0 0-0.001 0-0.001 0-0.727 0-1.317-0.59-1.317-1.317 0-0 0-0.001 0-0.001v0-7.257c0-0.728 0.59-1.318 1.318-1.318s1.318 0.59 1.318 1.318v0 7.256c0 0.001 0 0.001 0 0.002 0 0.727-0.59 1.317-1.317 1.317-0 0-0.001 0-0.001 0h0z"></path>
<path fill="#fff" style="fill: var(--color2, #fff)" d="M17.624 23.474c0 0.874-0.708 1.582-1.582 1.582s-1.582-0.708-1.582-1.582c0-0.874 0.708-1.582 1.582-1.582s1.582 0.708 1.582 1.582z"></path>
</symbol>
<symbol id="icon-lg-circle-bus-gray" viewBox="0 0 32 32">
<title>lg-circle-bus-gray</title>
<path fill="#8a8b8a" style="fill: var(--color1, #8a8b8a)" d="M16 32c-8.8 0-16-7.2-16-16s7.2-16 16-16c8.8 0 16 7.2 16 16s-7.2 16-16 16zM16 1.231c-8.123 0-14.769 6.646-14.769 14.769s6.646 14.769 14.769 14.769 14.769-6.646 14.769-14.769-6.646-14.769-14.769-14.769z"></path>
<path fill="#8a8b8a" style="fill: var(--color1, #8a8b8a)" d="M20.722 5.988h-8.985c-1.538-0.123-2.831 0.985-3.015 2.523 0 0.185 0 0.308 0 0.492v16.492h1.477v-2.277h12v2.277h1.477v-16.492c0.185-1.538-0.923-2.892-2.462-3.015-0.123 0-0.308 0-0.492 0zM22.261 21.742h-12v-12.738c0.062-0.8 0.677-1.477 1.477-1.538h8.985c0.8 0.062 1.415 0.677 1.477 1.477v12.8zM13.215 20.204v-1.477h-1.477v1.477h1.477zM20.722 18.727h-1.477v1.477h1.477v-1.477zM7.246 17.25h17.969v-1.477h-17.969v1.477zM16.969 16.881v-5.662h-1.477v5.6l1.477 0.062zM8.722 11.958h15.015v-1.477h-15.015v1.477z"></path>
</symbol>
<symbol id="icon-lg-circle-exclamation-color" viewBox="0 0 32 32">
<title>lg-circle-exclamation-color</title>
<path fill="#0097d0" style="fill: var(--color2, #0097d0)" d="M16 1.28c-1.988 0-3.915 0.389-5.729 1.156-1.753 0.741-3.327 1.803-4.679 3.155s-2.414 2.927-3.155 4.679c-0.767 1.814-1.156 3.742-1.156 5.729s0.389 3.915 1.156 5.729c0.741 1.753 1.803 3.327 3.155 4.679s2.927 2.414 4.679 3.155c1.814 0.767 3.742 1.156 5.729 1.156s3.915-0.389 5.729-1.156c1.753-0.741 3.327-1.803 4.679-3.155s2.414-2.927 3.155-4.679c0.767-1.814 1.156-3.742 1.156-5.729s-0.389-3.915-1.156-5.729c-0.741-1.753-1.803-3.327-3.155-4.679s-2.927-2.414-4.679-3.155c-1.814-0.767-3.742-1.156-5.729-1.156zM16 0c8.837 0 16 7.163 16 16s-7.163 16-16 16c-8.837 0-16-7.163-16-16s7.163-16 16-16z"></path>
<path fill="#0053a0" style="fill: var(--color3, #0053a0)" d="M16.374 8.396c-2.486 0.030-4.493 2.038-4.522 4.522l-0 0.003c0 0.416 0.338 0.754 0.754 0.754s0.754-0.338 0.754-0.754v0c0-1.665 1.35-3.015 3.015-3.015s3.015 1.35 3.015 3.015v0c0.012 1.307-0.695 1.984-1.625 2.827-0.514 0.434-0.974 0.901-1.387 1.406l-0.015 0.019c-0.455 0.579-0.733 1.316-0.742 2.118l-0 0.002v0.412c0 0.416 0.338 0.754 0.754 0.754s0.754-0.338 0.754-0.754v0-0.412c-0-0.005-0-0.011-0-0.018 0-0.458 0.165-0.877 0.438-1.201l-0.002 0.003c0.375-0.443 0.773-0.841 1.201-1.204l0.015-0.012c0.96-0.872 2.131-2.048 2.12-3.946 0-0.004 0-0.008 0-0.012-0.039-2.48-2.045-4.48-4.524-4.508l-0.003-0zM16.374 21.587c-0.625 0-1.131 0.506-1.131 1.131s0.506 1.131 1.131 1.131c0.625 0 1.131-0.506 1.131-1.131v0c-0-0.624-0.507-1.13-1.131-1.13v0z"></path>
</symbol>
<symbol id="icon-lg-circle-facebook-gray" viewBox="0 0 32 32">
<title>lg-circle-facebook-gray</title>
<path fill="#626462" style="fill: var(--color4, #626462)" d="M17.024 23.424h-2.368c-0.384 0-0.704-0.32-0.704-0.704v-5.312h-1.344c-0.384 0-0.704-0.32-0.704-0.704v-2.304c0-0.384 0.32-0.704 0.704-0.704h1.344v-1.152c-0.064-1.024 0.32-2.048 1.024-2.752s1.728-1.088 2.752-1.024h1.792c0.384 0 0.704 0.32 0.704 0.704v2.112c0 0.384-0.32 0.704-0.704 0.704h-1.216c-0.384 0-0.448 0.064-0.512 0.128s-0.064 0.128-0.064 0.448v0.896h1.664c0.128 0 0.256 0 0.384 0.064 0.256 0.128 0.384 0.384 0.384 0.64v2.304c0 0.384-0.32 0.704-0.704 0.704h-1.664v5.312c-0.064 0.32-0.32 0.64-0.768 0.64 0 0 0 0 0 0zM14.848 22.528h2.048v-5.568c0-0.256 0.192-0.448 0.448-0.448h1.92v-1.984h-1.92c-0.256 0-0.448-0.192-0.448-0.448v-1.28c0-0.384 0.064-0.704 0.256-1.024 0.32-0.256 0.704-0.448 1.152-0.384h1.088v-1.792h-1.664c-1.792 0-2.88 1.152-2.88 2.944v1.536c0 0.256-0.192 0.448-0.448 0.448h-1.6v1.984h1.6c0.256 0 0.448 0.192 0.448 0.448v5.568zM19.52 9.6v0z"></path>
<path fill="#626462" style="fill: var(--color4, #626462)" d="M16 32c-8.832 0-16-7.168-16-16s7.168-16 16-16 16 7.168 16 16-7.168 16-16 16zM16 0.96c-8.32 0-15.040 6.72-15.040 15.040s6.72 15.040 15.040 15.040 15.040-6.72 15.040-15.040-6.72-15.040-15.040-15.040z"></path>
</symbol>
<symbol id="icon-lg-circle-flickr-gray" viewBox="0 0 32 32">
<title>lg-circle-flickr-gray</title>
<path fill="#626462" style="fill: var(--color4, #626462)" d="M12.175 12.914c-1.792 0-3.264 1.472-3.264 3.264s1.472 3.264 3.264 3.264 3.264-1.472 3.264-3.264-1.472-3.264-3.264-3.264c0 0 0 0 0 0zM12.175 18.29c-1.152 0-2.112-0.96-2.112-2.112s0.96-2.112 2.112-2.112 2.112 0.96 2.112 2.112c0 1.152-0.96 2.112-2.112 2.112z"></path>
<path fill="#626462" style="fill: var(--color4, #626462)" d="M20.047 12.914c-1.792 0-3.264 1.472-3.264 3.264s1.472 3.264 3.264 3.264 3.264-1.472 3.264-3.264-1.472-3.264-3.264-3.264v0zM20.047 18.29c-1.152 0-2.112-0.96-2.112-2.112s0.96-2.112 2.112-2.112c1.152 0 2.112 0.96 2.112 2.112 0 0 0 0 0 0 0.064 1.152-0.896 2.112-2.112 2.112z"></path>
<path fill="#626462" style="fill: var(--color4, #626462)" d="M16 32c-8.832 0-16-7.168-16-16s7.168-16 16-16 16 7.168 16 16-7.168 16-16 16zM16 0.96c-8.32 0-15.040 6.72-15.040 15.040s6.72 15.040 15.040 15.040 15.040-6.72 15.040-15.040-6.72-15.040-15.040-15.040z"></path>
</symbol>
<symbol id="icon-lg-circle-gray-bus" viewBox="0 0 32 32">
<title>lg-circle-gray-bus</title>
<path fill="#8a8b8a" style="fill: var(--color1, #8a8b8a)" d="M16 0c8.837 0 16 7.163 16 16s-7.163 16-16 16c-8.837 0-16-7.163-16-16v0c0-8.837 7.163-16 16-16v0z"></path>
<path fill="#fff" style="fill: var(--color5, #fff)" d="M20.926 5.588h-9.354c-0.078-0.008-0.169-0.012-0.262-0.012-1.584 0-2.868 1.284-2.868 2.868 0 0.092 0.004 0.183 0.013 0.273l-0.001-0.011v17.149h1.559v-2.339h12.472v2.339h1.559v-17.149c0.008-0.078 0.012-0.169 0.012-0.262 0-1.584-1.284-2.868-2.868-2.868-0.092 0-0.183 0.004-0.273 0.013l0.011-0.001zM22.485 21.957h-12.472v-13.248c0.059-0.836 0.723-1.5 1.554-1.559l0.005-0h9.354c0.836 0.059 1.5 0.723 1.559 1.554l0 0.005zM13.131 20.398v-1.559h-1.558v1.559zM20.925 18.839h-1.558v1.559h1.559zM6.895 17.28h18.708v-1.559h-18.708zM17.028 16.89v-5.846h-1.557v5.846zM8.452 11.823h15.592v-1.559h-15.59z"></path>
</symbol>
<symbol id="icon-lg-circle-gray-lrt" viewBox="0 0 32 32">
<title>lg-circle-gray-lrt</title>
<path fill="#8a8b8a" style="fill: var(--color1, #8a8b8a)" d="M32 16c0 8.837-7.163 16-16 16s-16-7.163-16-16c0-8.837 7.163-16 16-16s16 7.163 16 16z"></path>
<path fill="#fff" style="fill: var(--color5, #fff)" d="M12.884 23.75h7.062c0.044 0.002 0.096 0.003 0.148 0.003 1.845 0 3.346-1.477 3.383-3.314l0-0.003v-9.94c-0.031-1.839-1.529-3.318-3.373-3.318-0.056 0-0.111 0.001-0.166 0.004l0.008-0h-7.062c-0.044-0.002-0.096-0.003-0.149-0.003-1.845 0-3.346 1.477-3.383 3.314l-0 0.003v9.941c0.042 1.84 1.544 3.316 3.391 3.316 0.049 0 0.098-0.001 0.147-0.003l-0.007 0zM10.677 27.064h1.995l2.207-3.314h-1.994zM20.176 27.064h1.977l-2.207-3.314h-1.978zM16.415 20.437c0.924-0.035 1.671-0.745 1.765-1.648l0.001-0.008c-0.095-0.912-0.842-1.622-1.762-1.657l-0.003-0c-0.924 0.035-1.671 0.745-1.765 1.649l-0.001 0.008c0.095 0.912 0.842 1.621 1.762 1.656l0.003 0zM12.884 22.094c-0.055 0.007-0.119 0.011-0.183 0.011-0.875 0-1.585-0.709-1.585-1.585 0-0.029 0.001-0.058 0.002-0.087l-0 0.004v-9.941c-0.002-0.028-0.003-0.060-0.003-0.092 0-0.871 0.706-1.576 1.576-1.576 0.068 0 0.134 0.004 0.2 0.013l-0.008-0.001h7.063c0.060-0.008 0.13-0.013 0.2-0.013 0.866 0 1.569 0.702 1.569 1.569 0 0.036-0.001 0.071-0.004 0.106l0-0.005v9.941c0.002 0.028 0.003 0.060 0.003 0.092 0 0.871-0.706 1.576-1.576 1.576-0.068 0-0.134-0.004-0.2-0.013l0.008 0.001zM11.119 15.467h10.593v-1.657h-10.593zM15.535 7.183h1.766v-1.657h2.648v-1.657h-7.064v1.657h2.648z"></path>
</symbol>
<symbol id="icon-lg-circle-gray-train" viewBox="0 0 32 32">
<title>lg-circle-gray-train</title>
<path fill="#8a8b8a" style="fill: var(--color1, #8a8b8a)" d="M16.024-0.015c8.832 0 16 7.168 16 16s-7.168 16-16 16-16-7.168-16-16 7.168-16 16-16z"></path>
<path fill="#fff" style="fill: var(--color5, #fff)" d="M16.133 8.864l-4.352 1.92c-0.448 0.448-1.216 1.408-1.216 2.432v4.608c0 1.28 1.024 2.368 2.24 2.368h6.4c1.216 0 2.24-1.088 2.24-2.368v-4.608c0-1.024-0.768-1.984-1.216-2.432l-4.096-1.92zM16.133 7.072l4.992 2.368c0 0 1.92 1.6 1.92 3.776v4.608c0 2.176-1.728 3.968-3.84 3.968h-6.4c-2.112 0-3.84-1.792-3.84-3.968v-4.608c0-2.176 1.92-3.776 1.92-3.776l5.248-2.368z"></path>
<path fill="#fff" style="fill: var(--color5, #fff)" d="M14.080 17.002c0 0.53-0.43 0.96-0.96 0.96s-0.96-0.43-0.96-0.96c0-0.53 0.43-0.96 0.96-0.96s0.96 0.43 0.96 0.96z"></path>
<path fill="#fff" style="fill: var(--color5, #fff)" d="M20.48 17.002c0 0.53-0.43 0.96-0.96 0.96s-0.96-0.43-0.96-0.96c0-0.53 0.43-0.96 0.96-0.96s0.96 0.43 0.96 0.96z"></path>
<path fill="#fff" style="fill: var(--color5, #fff)" d="M15.040 4.522h1.92v3.2h-1.92v-3.2z"></path>
<path fill="#fff" style="fill: var(--color5, #fff)" d="M16.064 5.418c-0.32 0-0.832 0.256-1.088 0.448l-0.128 0.064-0.064 0.064c0 0-0.896 0.448-1.536 1.024v0 0c-1.28 0.96-1.408 1.536-1.408 1.728v0.256l0.192-0.128 0.192-0.064 3.2-1.28 0.576-0.256 0.576 0.256 3.2 1.28 0.192 0.064 0.192 0.128v-0.256c0-0.32-0.32-0.96-1.28-1.664-0.768-0.64-1.664-1.088-1.664-1.088l-0.256-0.128c-0.128-0.192-0.64-0.448-0.896-0.448zM16.064 3.818c0.96 0 1.92 0.704 1.92 0.704s3.776 1.92 3.776 4.224v3.456l-2.56-1.92-3.2-1.28-3.2 1.28-2.56 1.92v-3.456c0-1.088 0.896-2.112 1.984-3.008 0.832-0.704 1.856-1.216 1.856-1.216s1.024-0.704 1.984-0.704z"></path>
<path fill="#fff" style="fill: var(--color5, #fff)" d="M17.28 12.202c0 0.707-0.573 1.28-1.28 1.28s-1.28-0.573-1.28-1.28c0-0.707 0.573-1.28 1.28-1.28s1.28 0.573 1.28 1.28z"></path>
<path fill="#fff" style="fill: var(--color5, #fff)" d="M10.24 20.522l-2.56 6.4h1.28l2.56-6.4h-1.28z"></path>
<path fill="#fff" style="fill: var(--color5, #fff)" d="M9.152 27.242h-1.984l2.816-7.040h1.984l-2.816 7.040zM8.128 26.602h0.576l2.304-5.76h-0.576l-2.304 5.76z"></path>
<path fill="#fff" style="fill: var(--color5, #fff)" d="M21.76 20.522l2.56 6.4h-1.28l-2.56-6.4h1.28z"></path>
<path fill="#fff" style="fill: var(--color5, #fff)" d="M24.768 27.242h-1.984l-2.816-7.040h1.984l2.816 7.040zM23.232 26.602h0.576l-2.304-5.76h-0.576l2.304 5.76z"></path>
<path fill="#fff" style="fill: var(--color5, #fff)" d="M9.6 23.082h12.16v0.96h-12.16v-0.96z"></path>
<path fill="#fff" style="fill: var(--color5, #fff)" d="M22.080 24.362h-12.8v-1.6h12.8v1.6zM9.92 23.722h11.52v-0.32h-11.52v0.32z"></path>
<path fill="#fff" style="fill: var(--color5, #fff)" d="M8.96 25.962h14.080v0.96h-14.080v-0.96z"></path>
<path fill="#fff" style="fill: var(--color5, #fff)" d="M23.36 27.242h-14.72v-1.6h14.72v1.6zM9.28 26.602h13.44v-0.32h-13.44v0.32z"></path>
</symbol>
<symbol id="icon-lg-circle-instagram-gray" viewBox="0 0 32 32">
<title>lg-circle-instagram-gray</title>
<path fill="#626462" style="fill: var(--color4, #626462)" d="M19.528 8.733h-6.656c-2.176 0-3.904 1.728-3.904 3.904v6.656c0 2.176 1.728 3.904 3.904 3.904h6.656c2.176 0 3.904-1.728 3.904-3.904v-6.656c0-2.176-1.728-3.904-3.904-3.904zM22.6 19.293c0 1.728-1.344 3.072-3.072 3.072h-6.656c-1.728 0-3.072-1.344-3.072-3.072v-6.656c0-1.728 1.344-3.072 3.072-3.072 0 0 0 0 0 0h6.656c1.728 0 3.072 1.344 3.072 3.072v6.656z"></path>
<path fill="#626462" style="fill: var(--color4, #626462)" d="M16.2 11.997c-2.176 0-3.968 1.792-3.968 3.968s1.792 3.968 3.968 3.968c2.176 0 3.968-1.792 3.968-3.968s-1.792-3.968-3.968-3.968zM16.2 19.101c-1.728 0-3.136-1.408-3.136-3.136s1.408-3.136 3.136-3.136 3.136 1.408 3.136 3.136c0 1.728-1.408 3.136-3.136 3.136v0z"></path>
<path fill="#626462" style="fill: var(--color4, #626462)" d="M20.232 10.589c-0.64 0-1.152 0.512-1.152 1.152s0.512 1.152 1.152 1.152 1.152-0.512 1.152-1.152c0.064-0.64-0.448-1.152-1.152-1.152zM20.232 12.125c-0.192 0-0.32-0.128-0.32-0.32s0.128-0.32 0.32-0.32 0.32 0.128 0.32 0.32c0 0.128-0.128 0.32-0.32 0.32z"></path>
<path fill="#626462" style="fill: var(--color4, #626462)" d="M16 32c-8.832 0-16-7.168-16-16s7.168-16 16-16 16 7.168 16 16-7.168 16-16 16zM16 0.96c-8.32 0-15.040 6.72-15.040 15.040s6.72 15.040 15.040 15.040 15.040-6.72 15.040-15.040-6.72-15.040-15.040-15.040z"></path>
</symbol>
<symbol id="icon-lg-circle-linkedin-gray" viewBox="0 0 32 32">
<title>lg-circle-linkedin-gray</title>
<path fill="#626462" style="fill: var(--color4, #626462)" d="M13.974 11.741h-2.432c-0.256 0-0.512 0.192-0.512 0.512 0 0 0 0 0 0v9.152c0 0.256 0.192 0.512 0.512 0.512h2.432c0.256 0 0.512-0.192 0.512-0.512v-9.152c0-0.32-0.256-0.512-0.512-0.512zM13.59 21.021h-1.728v-8.448h1.728v8.448z"></path>
<path fill="#626462" style="fill: var(--color4, #626462)" d="M12.758 7.453c-0.96 0-1.728 0.768-1.728 1.728s0.768 1.728 1.728 1.728 1.728-0.768 1.728-1.728v0c0-0.96-0.768-1.728-1.728-1.728zM12.758 10.077c-0.512 0-0.896-0.384-0.896-0.896s0.384-0.896 0.896-0.896c0.512 0 0.896 0.384 0.896 0.896 0 0 0 0 0 0 0 0.512-0.384 0.896-0.896 0.896z"></path>
<path fill="#626462" style="fill: var(--color4, #626462)" d="M22.358 12.829c-0.576-0.512-1.344-0.768-2.112-0.704-0.448 0-0.96 0.128-1.344 0.32v-0.256c0-0.256-0.192-0.448-0.448-0.448v0h-2.496c-0.256 0-0.448 0.192-0.448 0.448v0 9.216c0 0.256 0.192 0.448 0.448 0.448v0h2.496c0.256 0 0.448-0.192 0.448-0.448v-5.504c0-0.448 0.384-0.832 0.832-0.896 0.448 0 0.896 0.384 0.896 0.832 0 0 0 0 0 0v5.504c0 0.256 0.192 0.384 0.384 0.384h2.432c0.256 0 0.384-0.192 0.384-0.384v-5.376c0.064-1.152-0.512-2.368-1.472-3.136zM23.062 21.021h-1.536v-5.056c0-0.96-0.768-1.728-1.728-1.728s-1.728 0.768-1.728 1.728v5.056h-1.728v-8.448h1.728v0.64c0 0.256 0.192 0.448 0.448 0.448 0.128 0 0.192-0.064 0.256-0.128 0.448-0.384 0.96-0.576 1.536-0.576s1.088 0.192 1.536 0.512c0.768 0.64 1.28 1.664 1.216 2.688v4.864z"></path>
<path fill="#626462" style="fill: var(--color4, #626462)" d="M16 32c-8.832 0-16-7.168-16-16s7.168-16 16-16 16 7.168 16 16-7.168 16-16 16zM16 0.96c-8.32 0-15.040 6.72-15.040 15.040s6.72 15.040 15.040 15.040 15.040-6.72 15.040-15.040-6.72-15.040-15.040-15.040z"></path>
</symbol>
<symbol id="icon-lg-circle-question-white" viewBox="0 0 32 32">
<title>lg-circle-question-white</title>
<path fill="#fff" style="fill: var(--color5, #fff)" d="M16 1.28c-1.988 0-3.915 0.389-5.729 1.156-1.753 0.741-3.327 1.803-4.679 3.155s-2.414 2.927-3.155 4.679c-0.767 1.814-1.156 3.742-1.156 5.729s0.389 3.915 1.156 5.729c0.741 1.753 1.803 3.327 3.155 4.679s2.927 2.414 4.679 3.155c1.814 0.767 3.742 1.156 5.729 1.156s3.915-0.389 5.729-1.156c1.753-0.741 3.327-1.803 4.679-3.155s2.414-2.927 3.155-4.679c0.767-1.814 1.156-3.742 1.156-5.729s-0.389-3.915-1.156-5.729c-0.741-1.753-1.803-3.327-3.155-4.679s-2.927-2.414-4.679-3.155c-1.814-0.767-3.742-1.156-5.729-1.156zM16 0c8.837 0 16 7.163 16 16s-7.163 16-16 16c-8.837 0-16-7.163-16-16s7.163-16 16-16z"></path>
<path fill="#fff" style="fill: var(--color5, #fff)" d="M16.331 8.531c-2.451 0.030-4.43 2.010-4.459 4.458l-0 0.003c0 0.411 0.333 0.743 0.743 0.743s0.743-0.333 0.743-0.743v0c0-1.642 1.331-2.973 2.973-2.973s2.973 1.331 2.973 2.973v0c0.011 1.288-0.685 1.953-1.6 2.787-0.507 0.429-0.96 0.89-1.367 1.389l-0.015 0.019c-0.449 0.571-0.723 1.298-0.732 2.088l-0 0.002v0.406c0 0.411 0.333 0.743 0.743 0.743s0.743-0.333 0.743-0.743v0-0.406c-0-0.004-0-0.010-0-0.015 0-0.451 0.162-0.864 0.432-1.184l-0.002 0.003c0.369-0.436 0.76-0.828 1.182-1.184l0.015-0.012c0.946-0.86 2.101-2.022 2.090-3.89 0-0.004 0-0.008 0-0.012-0.034-2.449-2.013-4.424-4.46-4.452l-0.003-0zM16.331 21.537c-0.616 0-1.115 0.499-1.115 1.115s0.499 1.115 1.115 1.115c0.616 0 1.115-0.499 1.115-1.115v0c-0-0.615-0.499-1.114-1.115-1.114v0z"></path>
</symbol>
<symbol id="icon-lg-circle-twitter-gray" viewBox="0 0 32 32">
<title>lg-circle-twitter-gray</title>
<path fill="#626462" style="fill: var(--color4, #626462)" d="M14.4 22.080c-2.432 0-4.352-0.448-5.312-1.152v0 0c-0.192-0.192-0.32-0.512-0.192-0.768v0c0.128-0.256 0.384-0.448 0.704-0.448 0.576 0 1.152-0.064 1.664-0.256-0.768-0.384-1.408-1.088-1.664-1.92-0.128-0.32 0-0.64 0.256-0.768 0.064-0.064 0.128-0.064 0.192-0.128-0.448-0.512-0.768-1.088-0.96-1.664v0 0c-0.064-0.32 0.064-0.576 0.32-0.768 0.128-0.064 0.192-0.064 0.32-0.064-0.128-0.256-0.192-0.512-0.256-0.832-0.128-0.768 0-1.6 0.384-2.304l0.064-0.192c0.128-0.256 0.448-0.384 0.704-0.256 0.064 0 0.064 0.064 0.128 0.128l0.192 0.192c1.152 1.28 2.752 2.176 4.48 2.432 0.064-0.768 0.448-1.472 0.96-2.048 0.64-0.64 1.472-1.024 2.432-1.088v0c0.704 0.064 1.408 0.32 1.984 0.64 0.448-0.128 0.96-0.384 1.472-0.576 0.256-0.128 0.576-0.064 0.768 0.128s0.256 0.512 0.128 0.704c-0.064 0.128-0.064 0.192-0.128 0.32 0.064 0.064 0.128 0.064 0.192 0.128 0.192 0.192 0.256 0.448 0.192 0.704v0c-0.192 0.64-0.576 1.152-1.152 1.536-0.064 4.544-3.584 8.32-7.872 8.32zM9.92 20.48c0.896 0.512 2.496 0.768 4.48 0.768 1.92 0 3.712-0.832 4.992-2.24 1.344-1.472 2.112-3.456 2.112-5.504v0c0-0.192 0.128-0.384 0.256-0.448 0.32-0.192 0.64-0.512 0.768-0.896-0.256 0.064-0.512-0.128-0.576-0.448 0-0.128 0-0.256 0.064-0.384s0.128-0.192 0.192-0.32c-0.448 0.192-0.896 0.384-1.28 0.512-0.128 0.064-0.32 0-0.448-0.064-0.512-0.32-1.088-0.512-1.728-0.64-1.472 0.064-2.56 1.28-2.56 2.688 0 0.256-0.256 0.512-0.512 0.512-0.064 0-0.064 0-0.128 0-1.984-0.256-3.776-1.152-5.12-2.56-0.192 0.448-0.256 0.96-0.192 1.472 0.128 0.512 0.384 1.024 0.768 1.408 0.192 0.192 0.192 0.512-0.064 0.704-0.128 0.128-0.32 0.128-0.448 0.128-0.192-0.064-0.32-0.128-0.448-0.192 0.32 0.704 0.832 1.28 1.472 1.728 0.256 0.128 0.32 0.448 0.128 0.704-0.128 0.128-0.256 0.256-0.448 0.192-0.256 0-0.448-0.064-0.64-0.128 0.32 0.704 1.024 1.216 1.856 1.28 0.256 0.064 0.448 0.32 0.384 0.576 0 0.128-0.128 0.256-0.256 0.384-0.832 0.448-1.664 0.704-2.624 0.768z"></path>
<path fill="#626462" style="fill: var(--color4, #626462)" d="M16 32c-8.832 0-16-7.168-16-16s7.168-16 16-16 16 7.168 16 16-7.168 16-16 16zM16 0.96c-8.32 0-15.040 6.72-15.040 15.040s6.72 15.040 15.040 15.040 15.040-6.72 15.040-15.040-6.72-15.040-15.040-15.040z"></path>
</symbol>
<symbol id="icon-lg-circle-youtube-gray" viewBox="0 0 32 32">
<title>lg-circle-youtube-gray</title>
<path fill="#626462" style="fill: var(--color4, #626462)" d="M18.449 16.040l-3.264-1.792c-0.32-0.128-0.64-0.064-0.832 0.256-0.064 0.064-0.064 0.192-0.064 0.256v3.52c0 0.32 0.256 0.576 0.576 0.576 0.128 0 0.192 0 0.256-0.064l3.264-1.728c0.32-0.128 0.384-0.512 0.256-0.832 0-0.064-0.128-0.128-0.192-0.192v0zM15.185 17.896v-2.688l2.432 1.344-2.432 1.344z"></path>
<path fill="#626462" style="fill: var(--color4, #626462)" d="M23.441 13.736v0c-0.064-0.64-0.256-1.216-0.64-1.728-0.448-0.448-0.96-0.704-1.6-0.768h-0.064c-1.984-0.128-4.928-0.128-4.992-0.128v0c0 0-2.944 0-4.928 0.192v0h-0.064c-0.576 0.064-1.152 0.32-1.6 0.768-0.384 0.512-0.576 1.088-0.64 1.664v0c0 0.064-0.128 1.216-0.128 2.432v1.088c0 1.152 0.128 2.368 0.128 2.432v0c0.064 0.64 0.256 1.216 0.64 1.664 0.448 0.448 1.024 0.704 1.664 0.704 0.064 0 0.128 0 0.128 0h0.064c1.152 0.128 4.672 0.128 4.8 0.192v0c0 0 2.944 0 4.928-0.192v0h0.064c0.576-0.064 1.152-0.32 1.536-0.768 0.384-0.512 0.576-1.088 0.64-1.664v0c0-0.064 0.128-1.216 0.128-2.432v-1.024c0.064-1.216-0.064-2.368-0.064-2.432zM22.673 17.256c0 1.088-0.064 2.24-0.128 2.304-0.064 0.448-0.192 0.832-0.448 1.216-0.256 0.32-0.64 0.448-1.024 0.448h-0.064c-1.856 0.128-4.736 0.128-4.864 0.128s-3.648-0.064-4.736-0.128c-0.064 0-0.128 0-0.192 0-0.384 0-0.832-0.192-1.088-0.448v0c-0.256-0.384-0.384-0.768-0.448-1.216 0-0.064-0.128-1.216-0.128-2.304v-1.088c0-1.088 0.064-2.24 0.128-2.304 0.064-0.448 0.192-0.832 0.448-1.216 0.256-0.32 0.64-0.448 1.024-0.512h0.064c1.92-0.128 4.8-0.128 4.864-0.128s2.944 0 4.864 0.128h0.064c0.384 0 0.768 0.192 1.088 0.448v0c0.256 0.384 0.384 0.768 0.384 1.216 0 0.064 0.128 1.216 0.128 2.304l0.064 1.152z"></path>
<path fill="#626462" style="fill: var(--color4, #626462)" d="M16 32c-8.832 0-16-7.168-16-16s7.168-16 16-16 16 7.168 16 16-7.168 16-16 16zM16 0.96c-8.32 0-15.040 6.72-15.040 15.040s6.72 15.040 15.040 15.040 15.040-6.72 15.040-15.040-6.72-15.040-15.040-15.040z"></path>
</symbol>
<symbol id="icon-lg-clock-color" viewBox="0 0 32 32">
<title>lg-clock-color</title>
<path fill="#0053a0" style="fill: var(--color3, #0053a0)" d="M16 1.28c-1.984 0-3.904 0.384-5.76 1.152-1.728 0.768-3.328 1.792-4.672 3.136s-2.368 2.944-3.136 4.672c-0.768 1.856-1.152 3.776-1.152 5.76s0.384 3.904 1.152 5.76c0.768 1.728 1.792 3.328 3.136 4.672s2.944 2.432 4.672 3.136c1.792 0.768 3.712 1.152 5.76 1.152s3.904-0.384 5.76-1.152c1.728-0.768 3.328-1.792 4.672-3.136s2.432-2.944 3.136-4.672c0.768-1.792 1.152-3.712 1.152-5.76s-0.384-3.904-1.152-5.76c-0.768-1.728-1.792-3.328-3.136-4.672s-2.944-2.368-4.672-3.136c-1.856-0.768-3.776-1.152-5.76-1.152zM16 0c8.832 0 16 7.168 16 16s-7.168 16-16 16-16-7.168-16-16 7.168-16 16-16z"></path>
<path fill="#ed1b2e" style="fill: var(--color6, #ed1b2e)" d="M15.829 8.656v8.256z"></path>
<path fill="#ed1b2e" style="fill: var(--color6, #ed1b2e)" d="M15.829 17.552c-0.384 0-0.64-0.256-0.64-0.64v-8.256c0-0.384 0.256-0.64 0.64-0.64s0.64 0.256 0.64 0.64v8.256c0 0.32-0.256 0.64-0.64 0.64z"></path>
<path fill="#ed1b2e" style="fill: var(--color6, #ed1b2e)" d="M16.917 19.088l6.016 4.224z"></path>
<path fill="#ed1b2e" style="fill: var(--color6, #ed1b2e)" d="M22.933 23.952c-0.128 0-0.256-0.064-0.384-0.128l-6.016-4.224c-0.32-0.192-0.384-0.576-0.128-0.896 0.192-0.32 0.576-0.384 0.896-0.128l6.016 4.224c0.32 0.192 0.384 0.576 0.128 0.896-0.128 0.192-0.32 0.256-0.512 0.256z"></path>
</symbol>
<symbol id="icon-lg-clock-white" viewBox="0 0 32 32">
<title>lg-clock-white</title>
<path fill="#fff" style="fill: var(--color5, #fff)" d="M16 1.28c-1.984 0-3.904 0.384-5.76 1.152-1.728 0.768-3.328 1.792-4.672 3.136s-2.368 2.944-3.136 4.672c-0.768 1.856-1.152 3.776-1.152 5.76s0.384 3.904 1.152 5.76c0.768 1.728 1.792 3.328 3.136 4.672s2.944 2.432 4.672 3.136c1.792 0.768 3.712 1.152 5.76 1.152s3.904-0.384 5.76-1.152c1.728-0.768 3.328-1.792 4.672-3.136s2.432-2.944 3.136-4.672c0.768-1.792 1.152-3.712 1.152-5.76s-0.384-3.904-1.152-5.76c-0.768-1.728-1.792-3.328-3.136-4.672s-2.944-2.368-4.672-3.136c-1.856-0.768-3.776-1.152-5.76-1.152zM16 0c8.832 0 16 7.168 16 16s-7.168 16-16 16-16-7.168-16-16 7.168-16 16-16z"></path>
<path fill="#fff" style="fill: var(--color5, #fff)" d="M15.829 8.656v8z"></path>
<path fill="#fff" style="fill: var(--color5, #fff)" d="M15.829 17.296c-0.384 0-0.64-0.256-0.64-0.64v-8c0-0.384 0.256-0.64 0.64-0.64s0.64 0.256 0.64 0.64v8c0 0.32-0.256 0.64-0.64 0.64z"></path>
<path fill="#fff" style="fill: var(--color5, #fff)" d="M16.981 18.896l6.144 4.352z"></path>
<path fill="#fff" style="fill: var(--color5, #fff)" d="M23.125 23.952c-0.128 0-0.256-0.064-0.384-0.128l-6.144-4.352c-0.32-0.192-0.384-0.576-0.128-0.896 0.192-0.32 0.576-0.384 0.896-0.128l6.144 4.352c0.32 0.192 0.384 0.576 0.128 0.896-0.128 0.128-0.32 0.256-0.512 0.256z"></path>
</symbol>
<symbol id="icon-lg-date-time-color" viewBox="0 0 34 32">
<title>lg-date-time-color</title>
<path fill="#0097d0" style="fill: var(--color2, #0097d0)" d="M30.264 14.836v-8.523c0-2.181-1.768-3.949-3.949-3.949v0h-0.276v-1.575c0-0.436-0.353-0.789-0.789-0.789s-0.789 0.353-0.789 0.789v1.539h-3.472v-1.539c0-0.436-0.353-0.789-0.789-0.789s-0.789 0.353-0.789 0.789v1.539h-3.472v-1.539c0-0.436-0.353-0.789-0.789-0.789s-0.789 0.353-0.789 0.789v0 1.539h-3.508v-1.539c0-0.436-0.353-0.789-0.789-0.789s-0.789 0.353-0.789 0.789v1.539h-3.472v-1.539c0-0.436-0.353-0.789-0.789-0.789s-0.789 0.353-0.789 0.789v0 1.539h-0.273c-2.181 0-3.949 1.768-3.949 3.949v0 15.938c0 2.181 1.768 3.949 3.949 3.949h11.758c1.486 3.46 4.865 5.839 8.799 5.839 5.274 0 9.549-4.275 9.549-9.549 0-3.101-1.478-5.856-3.768-7.601l-0.023-0.017zM3.949 24.581c-1.307 0-2.367-1.060-2.367-2.367v0-15.901c0.002-1.306 1.061-2.365 2.367-2.365h0.272v1.144c0 0.436 0.353 0.789 0.789 0.789s0.789-0.353 0.789-0.789v0-1.144h3.472v1.144c0 0.436 0.353 0.789 0.789 0.789s0.789-0.353 0.789-0.789v0-1.144h3.472v1.144c0 0.436 0.353 0.789 0.789 0.789s0.789-0.353 0.789-0.789v0-1.144h3.512v1.144c0 0.436 0.353 0.789 0.789 0.789s0.789-0.353 0.789-0.789v-1.144h3.472v1.144c0 0.436 0.353 0.789 0.789 0.789s0.789-0.353 0.789-0.789v0-1.144h0.276c1.307 0 2.367 1.060 2.367 2.367v7.534c-1.248-0.628-2.72-0.995-4.278-0.995-2.028 0-3.91 0.623-5.466 1.687l0.033-0.021c-0.136-0.102-2.207 1.498-1.77 1.498v0c-1.457 1.652-2.346 3.835-2.346 6.226 0 0.83 0.107 1.635 0.309 2.402l-0.015-0.066zM24.503 30.461c-4.385-0.022-7.931-3.582-7.931-7.971 0-4.402 3.569-7.971 7.971-7.971 4.388 0 7.949 3.546 7.971 7.93v0.002c0 0.012 0 0.025 0 0.039 0 4.402-3.569 7.971-7.971 7.971-0.014 0-0.028-0-0.042-0h0.002z"></path>
<path fill="#f68b1f" style="fill: var(--color7, #f68b1f)" d="M12.264 8.272h-1.43c-0.451 0-0.817 0.366-0.817 0.817s0.366 0.817 0.817 0.817h1.43c0.451 0 0.817-0.366 0.817-0.817s-0.366-0.817-0.817-0.817v0z"></path>
<path fill="#f68b1f" style="fill: var(--color7, #f68b1f)" d="M6.544 8.272h-1.43c-0.451 0-0.817 0.366-0.817 0.817s0.366 0.817 0.817 0.817h1.43c0.451 0 0.817-0.366 0.817-0.817s-0.366-0.817-0.817-0.817v0z"></path>
<path fill="#f68b1f" style="fill: var(--color7, #f68b1f)" d="M16.554 9.906h1.43c0.451 0 0.817-0.366 0.817-0.817s-0.366-0.817-0.817-0.817h-1.43c-0.451 0-0.817 0.366-0.817 0.817s0.366 0.817 0.817 0.817v0z"></path>
<path fill="#f68b1f" style="fill: var(--color7, #f68b1f)" d="M22.274 9.906h1.43c0.451 0 0.817-0.366 0.817-0.817s-0.366-0.817-0.817-0.817h-1.43c-0.451 0-0.817 0.366-0.817 0.817s0.366 0.817 0.817 0.817v0z"></path>
<path fill="#f68b1f" style="fill: var(--color7, #f68b1f)" d="M12.264 13.052h-1.43c-0.451 0-0.817 0.366-0.817 0.817s0.366 0.817 0.817 0.817h1.43c0.451 0 0.817-0.366 0.817-0.817s-0.366-0.817-0.817-0.817v0z"></path>
<path fill="#f68b1f" style="fill: var(--color7, #f68b1f)" d="M6.544 13.052h-1.43c-0.451 0-0.817 0.366-0.817 0.817s0.366 0.817 0.817 0.817h1.43c0.451 0 0.817-0.366 0.817-0.817s-0.366-0.817-0.817-0.817v0z"></path>
<path fill="#f68b1f" style="fill: var(--color7, #f68b1f)" d="M12.264 17.791h-1.43c-0.451 0-0.817 0.366-0.817 0.817s0.366 0.817 0.817 0.817h1.43c0.451 0 0.817-0.366 0.817-0.817s-0.366-0.817-0.817-0.817v0z"></path>
<path fill="#f68b1f" style="fill: var(--color7, #f68b1f)" d="M6.544 17.791h-1.43c-0.451 0-0.817 0.366-0.817 0.817s0.366 0.817 0.817 0.817h1.43c0.451 0 0.817-0.366 0.817-0.817s-0.366-0.817-0.817-0.817v0z"></path>
<path fill="#f68b1f" style="fill: var(--color7, #f68b1f)" d="M27.463 22.626h-2.983v-4.208c0-0.451-0.366-0.817-0.817-0.817s-0.817 0.366-0.817 0.817v0 5.025c0 0.451 0.366 0.817 0.817 0.817v0h3.841c0.451 0 0.817-0.366 0.817-0.817s-0.366-0.817-0.817-0.817v0z"></path>
<path fill="#f68b1f" style="fill: var(--color7, #f68b1f)" d="M16.758 13.052h-1.43c-0.451 0-0.817 0.366-0.817 0.817s0.366 0.817 0.817 0.817h1.43c0.451 0 0.817-0.366 0.817-0.817s-0.366-0.817-0.817-0.817v0z"></path>
</symbol>
<symbol id="icon-lg-directions-color" viewBox="0 0 37 32">
<title>lg-directions-color</title>
<path fill="#f68b1f" style="fill: var(--color7, #f68b1f)" d="M6.519 15.158c-3.63 0-6.519 2.889-6.519 6.519s2.889 6.519 6.519 6.519h10l-2.37 2.37c-0.296 0.296-0.296 0.889 0 1.185s0.889 0.296 1.185 0l3.778-3.778c0.296-0.296 0.296-0.889 0-1.185 0 0 0 0 0 0l-3.778-3.778c0 0 0-0.074-0.074-0.074-0.37-0.296-0.889-0.296-1.185 0.074s-0.296 0.889 0.074 1.185v0l2.37 2.37h-10c-2.667 0-4.815-2.222-4.815-4.889 0-2.593 2.148-4.741 4.815-4.815h20.815c0.444 0 0.815-0.37 0.815-0.815s-0.37-0.815-0.815-0.815c0 0 0 0 0 0l-20.815-0.074z"></path>
<path fill="#ed1b2e" style="fill: var(--color6, #ed1b2e)" d="M11.324 0c-2.519 0-4.593 2.074-4.593 4.593 0 2.593 2.074 4.667 4.593 4.667 2.222 0 4.148-1.556 4.519-3.778h14.593c2.667 0 4.815 2.148 4.815 4.815 0 0 0 0 0 0.074 0.148 2.519-1.852 4.741-4.37 4.815-0.074 0-0.148 0-0.222 0-0.444 0-0.815 0.37-0.815 0.815s0.37 0.815 0.815 0.815c3.556 0 6.37-2.889 6.296-6.444 0 0 0-0.074 0-0.074 0-3.63-2.889-6.519-6.519-6.519h-14.519c-0.444-2.148-2.296-3.778-4.593-3.778zM11.324 1.704c1.63 0 2.963 1.333 2.963 2.963s-1.333 2.963-2.963 2.963-2.963-1.333-2.963-2.963v0c0.074-1.63 1.333-2.963 2.963-2.963 0 0 0 0 0 0z"></path>
<path fill="#0097d0" style="fill: var(--color2, #0097d0)" d="M11.324 0c-2.519 0-4.593 2.074-4.593 4.593 0 2.593 2.074 4.667 4.593 4.667 2.222 0 4.148-1.556 4.519-3.778h14.593c2.667 0 4.815 2.148 4.815 4.815 0 0 0 0 0 0.074 0.148 2.519-1.852 4.741-4.37 4.815-0.074 0-0.148 0-0.222 0-0.444 0-0.815 0.37-0.815 0.815s0.37 0.815 0.815 0.815c3.556 0 6.37-2.889 6.296-6.444 0 0 0-0.074 0-0.074 0-3.63-2.889-6.519-6.519-6.519h-14.519c-0.444-2.148-2.296-3.778-4.593-3.778zM11.324 1.704c1.63 0 2.963 1.333 2.963 2.963s-1.333 2.963-2.963 2.963-2.963-1.333-2.963-2.963v0c0.074-1.63 1.333-2.963 2.963-2.963 0 0 0 0 0 0z"></path>
<path fill="#ed1b2e" style="fill: var(--color6, #ed1b2e)" d="M26.235 31.687c-2.593 0-4.667-2.074-4.667-4.593s2.074-4.667 4.667-4.667 4.667 2.074 4.667 4.667-2.148 4.593-4.667 4.593zM26.235 23.91c-1.778 0-3.185 1.407-3.185 3.185s1.407 3.185 3.185 3.185 3.185-1.407 3.185-3.185-1.481-3.185-3.185-3.185z"></path>
</symbol>
<symbol id="icon-lg-directions-white" viewBox="0 0 37 32">
<title>lg-directions-white</title>
<path fill="#fff" style="fill: var(--color5, #fff)" d="M6.526 15.157c-3.604 0-6.526 2.922-6.526 6.526s2.922 6.526 6.526 6.526v0h9.973l-2.355 2.355c-0.151 0.152-0.244 0.362-0.244 0.593 0 0.465 0.377 0.843 0.843 0.843 0.234 0 0.446-0.096 0.599-0.25l3.779-3.779c0.154-0.153 0.25-0.365 0.25-0.599s-0.096-0.446-0.25-0.599l-0-0-3.79-3.79c-0.018-0.025-0.035-0.046-0.053-0.067l0.001 0.001c-0.152-0.145-0.358-0.234-0.585-0.234-0.468 0-0.848 0.38-0.848 0.848 0 0.253 0.111 0.48 0.286 0.635l0.001 0.001 2.371 2.355h-9.979c-2.674 0-4.842-2.168-4.842-4.842s2.168-4.842 4.842-4.842h20.842c0.465 0 0.842-0.377 0.842-0.842s-0.377-0.842-0.842-0.842v0zM25.685 22.737c-2.558 0-4.632 2.074-4.632 4.632s2.074 4.632 4.632 4.632c2.558 0 4.632-2.074 4.632-4.632v0c-0.007-2.555-2.076-4.624-4.631-4.632h-0.001zM25.685 24.421c1.628 0 2.947 1.32 2.947 2.947s-1.32 2.947-2.947 2.947c-1.628 0-2.947-1.32-2.947-2.947v0c-0-0.004-0-0.009-0-0.013 0-1.621 1.314-2.935 2.935-2.935 0.004 0 0.009 0 0.013 0h-0.001z"></path>
<path fill="#fff" style="fill: var(--color5, #fff)" d="M11.368 0c-0.001 0-0.001 0-0.002 0-2.558 0-4.632 2.074-4.632 4.632s2.074 4.632 4.632 4.632c2.26 0 4.142-1.619 4.55-3.761l0.005-0.029h14.606c0.008-0 0.016-0 0.025-0 2.66 0 4.817 2.157 4.817 4.817 0 0.009-0 0.018-0 0.027v-0.001c0.003 0.067 0.005 0.146 0.005 0.225 0 2.55-2.067 4.617-4.617 4.617-0.007 0-0.014 0-0.021-0h0.001c-0.465 0-0.842 0.377-0.842 0.842s0.377 0.842 0.842 0.842v0c3.496-0.034 6.317-2.876 6.317-6.377 0-0.052-0.001-0.105-0.002-0.157l0 0.008c-0.003-3.603-2.923-6.524-6.526-6.526h-14.605c-0.417-2.167-2.295-3.783-4.552-3.789h-0.001zM11.368 1.684c1.628 0 2.947 1.319 2.947 2.947s-1.319 2.947-2.947 2.947c-1.628 0-2.947-1.319-2.947-2.947v0c-0-0.004-0-0.008-0-0.013 0-1.621 1.314-2.935 2.935-2.935 0.004 0 0.009 0 0.013 0h-0.001z"></path>
</symbol>
<symbol id="icon-lg-triangle-exclamation-color" viewBox="0 0 34 32">
<title>lg-triangle-exclamation-color</title>
<path fill="#ed1b2e" style="fill: var(--color6, #ed1b2e)" d="M33.418 23.923l-11.637-20.691c-1.17-2.085-2.798-3.234-4.575-3.234s-3.402 1.148-4.574 3.234l-11.639 20.691c-1.17 2.079-1.308 4.085-0.394 5.649s2.733 2.427 5.119 2.427h22.977c2.386 0 4.203-0.862 5.119-2.427s0.774-3.571-0.395-5.649zM32.375 29.106c-0.565 0.963-1.991 1.5-3.682 1.5h-22.977c-1.69 0-2.4-0.557-3.496-1.5s-0.826-2.789 0-4.261l11.694-20.69c0.826-1.467 2.223-2.684 3.291-2.684s2.645 1.219 3.471 2.684l11.699 20.69c0.332 0.618 0.527 1.352 0.527 2.132 0 0.779-0.195 1.512-0.538 2.154l0.012-0.025z"></path>
<path fill="#f68b1f" style="fill: var(--color7, #f68b1f)" d="M18.624 20.974v-10.728c0-0.008 0-0.017 0-0.026 0-0.55-0.446-0.995-0.995-0.995s-0.995 0.446-0.995 0.995c0 0.009 0 0.018 0 0.027l-0-0.001v10.728c0.015 0.538 0.454 0.969 0.995 0.969s0.98-0.431 0.995-0.968l0-0.001z"></path>
<path fill="#f68b1f" style="fill: var(--color7, #f68b1f)" d="M19.036 25c0-0.778-0.631-1.409-1.409-1.409s-1.409 0.631-1.409 1.409c0 0.778 0.631 1.409 1.409 1.409v0c0.778-0 1.408-0.631 1.409-1.409v-0z"></path>
</symbol>
<symbol id="icon-lg-triangle-exclamation-white" viewBox="0 0 34 32">
<title>lg-triangle-exclamation-white</title>
<path fill="#fff" style="fill: var(--color5, #fff)" d="M33.418 23.924l-11.637-20.691c-1.17-2.085-2.798-3.234-4.575-3.234s-3.402 1.148-4.574 3.234l-11.639 20.691c-1.17 2.079-1.308 4.085-0.394 5.649s2.733 2.427 5.119 2.427h22.977c2.386 0 4.203-0.862 5.119-2.427s0.774-3.571-0.395-5.649zM32.375 29.107c-0.565 0.963-1.991 1.5-3.682 1.5h-22.977c-1.69 0-2.4-0.557-3.496-1.5s-0.826-2.789 0-4.261l11.694-20.69c0.826-1.467 2.223-2.684 3.291-2.684s2.645 1.219 3.471 2.684l11.699 20.69c0.332 0.618 0.527 1.352 0.527 2.132 0 0.779-0.195 1.512-0.538 2.154l0.012-0.025z"></path>
<path fill="#fff" style="fill: var(--color5, #fff)" d="M18.754 20.986v-10.59c0-0.008 0-0.017 0-0.026 0-0.542-0.44-0.982-0.982-0.982s-0.982 0.44-0.982 0.982c0 0.009 0 0.018 0 0.027l-0-0.001v10.589c-0 0.008-0 0.017-0 0.026 0 0.542 0.44 0.982 0.982 0.982s0.982-0.44 0.982-0.982c0-0.009-0-0.018-0-0.027l0 0.001z"></path>
<path fill="#fff" style="fill: var(--color5, #fff)" d="M19.112 24.944c0-0.782-0.634-1.416-1.416-1.416s-1.416 0.634-1.416 1.416c0 0.782 0.634 1.416 1.416 1.416v0c0.782-0.001 1.415-0.634 1.416-1.416v-0z"></path>
</symbol>
</defs>
</svg>